<svg id="svg" version="1.1" xmlns="http://www.w3.org/2000/svg" xmlns:xlink="http://www.w3.org/1999/xlink" width="400" height="400" viewBox="0, 0, 400,400"><g id="svgg"><path id="path0" d="M88.032 140.985 C 67.201 146.621,59.052 173.427,73.482 188.852 C 79.231 194.999,88.808 197.688,96.011 195.178 C 101.084 193.411,99.893 189.162,94.630 190.254 C 80.956 193.093,70.291 175.047,79.941 165.398 C 83.104 162.234,86.135 161.601,92.676 162.737 C 102.725 164.482,109.164 160.428,109.137 152.371 C 109.106 143.317,99.189 137.966,88.032 140.985 M236.849 155.112 C 232.610 156.353,232.402 162.702,236.555 164.073 C 239.373 165.003,242.704 163.331,243.189 160.744 C 243.887 157.024,240.524 154.036,236.849 155.112 M163.920 156.088 C 142.785 161.204,142.627 195.896,163.713 201.423 C 178.260 205.237,191.907 195.008,191.325 180.728 L 191.211 177.930 181.348 177.825 L 171.484 177.721 171.484 181.439 L 171.484 185.156 176.758 185.156 C 182.728 185.156,182.588 185.057,181.028 188.187 C 176.186 197.905,161.895 196.082,158.176 185.272 C 151.942 167.152,172.160 153.947,181.223 170.219 C 181.449 170.626,188.532 168.484,189.394 167.747 C 190.390 166.897,183.440 158.926,180.469 157.511 C 176.196 155.477,169.003 154.858,163.920 156.088 M250.690 178.711 L 250.794 201.563 264.655 201.563 L 278.516 201.563 278.516 197.279 L 278.516 192.996 269.141 193.080 L 259.766 193.164 259.760 175.391 C 259.756 165.615,259.625 157.424,259.467 157.187 C 258.828 156.232,257.305 155.859,254.030 155.859 L 250.586 155.859 250.690 178.711 M317.969 178.698 L 317.969 201.563 320.898 201.563 C 324.454 201.563,325.391 200.911,325.391 198.438 C 325.391 197.578,325.566 196.875,325.781 196.875 C 325.996 196.875,326.172 197.120,326.172 197.420 C 326.172 199.968,333.225 202.674,337.901 201.921 C 356.991 198.847,354.040 166.676,334.795 168.058 C 331.730 168.278,329.378 169.372,327.849 171.289 L 326.758 172.658 326.563 164.357 L 326.367 156.055 322.168 155.944 L 317.969 155.833 317.969 178.698 M121.201 157.303 C 118.975 157.598,118.359 158.894,118.359 163.291 C 118.359 168.477,118.687 168.883,123.022 169.080 C 128.472 169.328,129.297 168.515,129.297 162.894 C 129.297 157.800,127.391 156.484,121.201 157.303 M51.377 168.908 C 49.522 170.875,49.021 173.147,49.041 179.492 C 49.133 208.425,77.353 228.284,104.560 218.560 C 125.393 211.114,133.540 188.207,120.122 174.803 C 109.894 164.584,89.649 165.569,88.757 176.328 C 88.338 181.376,91.232 182.638,95.626 179.324 C 106.573 171.070,116.675 187.848,106.408 197.232 C 91.400 210.948,64.573 199.179,61.718 177.625 C 60.622 169.349,55.240 164.812,51.377 168.908 M206.938 168.702 C 199.242 171.249,194.709 178.313,195.429 186.642 C 197.204 207.196,227.351 207.229,228.801 186.678 C 229.685 174.138,218.444 164.895,206.938 168.702 M292.402 168.596 C 288.274 169.594,285.501 171.755,283.933 175.195 C 283.216 176.766,282.950 178.712,283.496 178.387 C 283.657 178.292,285.371 178.453,287.305 178.747 C 291.679 179.410,291.406 179.415,291.406 178.672 C 291.406 177.416,293.880 175.478,295.863 175.180 C 299.728 174.601,302.344 176.360,302.344 179.537 C 302.344 181.505,302.916 181.260,295.638 182.409 C 285.734 183.972,282.813 186.244,282.813 192.383 C 282.813 201.793,294.125 205.431,301.694 198.455 L 303.446 196.840 303.240 198.374 C 302.900 200.912,303.893 201.562,308.105 201.563 L 311.523 201.563 311.425 189.551 C 311.321 176.857,311.102 174.900,309.522 172.600 C 306.953 168.858,299.006 166.999,292.402 168.596 M234.375 184.538 C 234.482 193.222,234.658 200.405,234.766 200.501 C 235.597 201.244,237.118 201.563,239.831 201.563 L 242.994 201.563 242.884 185.710 C 242.754 167.098,243.257 168.750,237.718 168.750 L 234.180 168.750 234.375 184.538 M336.628 175.214 C 345.119 178.762,342.864 195.364,333.899 195.304 C 329.272 195.273,326.365 191.279,326.370 184.961 C 326.376 177.096,330.883 172.813,336.628 175.214 M215.795 175.775 C 219.824 177.743,221.613 184.859,219.422 190.198 C 216.534 197.232,206.723 196.454,204.514 189.015 C 201.813 179.919,208.414 172.172,215.795 175.775 M302.344 188.710 C 302.344 194.738,293.702 198.957,291.213 194.145 C 289.021 189.906,292.569 187.400,301.660 186.766 C 302.228 186.727,302.344 187.056,302.344 188.710 M260.396 218.541 C 259.020 220.642,259.833 220.891,261.719 218.945 L 263.044 217.578 262.036 217.578 C 261.395 217.578,260.797 217.929,260.396 218.541 M151.768 218.430 C 151.668 218.713,150.950 220.703,150.171 222.852 C 149.392 225.000,148.429 227.681,148.031 228.809 L 147.308 230.859 148.178 230.859 C 148.851 230.859,149.177 230.484,149.621 229.199 L 150.195 227.539 152.734 227.539 L 155.273 227.539 155.847 229.199 C 156.303 230.518,156.610 230.859,157.338 230.859 C 158.039 230.859,158.202 230.698,158.027 230.176 C 154.509 219.670,152.595 216.079,151.768 218.430 M218.898 218.536 C 218.600 219.313,219.042 219.922,219.903 219.922 C 220.671 219.922,221.085 219.251,220.808 218.457 C 220.573 217.783,219.165 217.842,218.898 218.536 M251.563 218.945 C 251.563 219.791,251.720 219.954,252.441 219.851 C 253.018 219.769,253.320 219.458,253.320 218.945 C 253.320 218.433,253.018 218.121,252.441 218.039 C 251.720 217.937,251.563 218.100,251.563 218.945 M287.500 220.313 C 287.500 222.794,287.363 222.971,286.156 222.058 C 283.662 220.171,280.859 222.541,280.859 226.537 C 280.859 230.159,284.360 232.409,286.699 230.291 C 287.413 229.645,287.500 229.637,287.500 230.213 C 287.500 230.599,287.815 230.859,288.281 230.859 C 289.031 230.859,289.063 230.599,289.063 224.414 C 289.063 218.229,289.031 217.969,288.281 217.969 C 287.587 217.969,287.500 218.229,287.500 220.313 M171.231 219.440 C 170.984 219.597,170.716 220.166,170.636 220.703 C 170.555 221.240,170.274 221.636,170.010 221.582 C 169.747 221.528,169.531 221.836,169.531 222.266 C 169.531 222.700,169.792 223.047,170.117 223.047 C 170.595 223.047,170.703 223.697,170.703 226.553 C 170.703 230.480,171.405 231.579,173.565 231.037 C 174.742 230.741,174.570 229.793,173.307 229.613 C 171.870 229.408,171.792 223.047,173.226 223.047 C 173.934 223.047,174.219 222.838,174.219 222.320 C 174.219 221.755,174.001 221.634,173.242 221.779 C 172.346 221.951,172.266 221.850,172.266 220.553 C 172.266 219.133,172.059 218.910,171.231 219.440 M213.379 219.399 C 213.110 219.508,212.891 220.104,212.891 220.723 C 212.891 221.565,212.742 221.793,212.305 221.626 C 211.898 221.470,211.719 221.653,211.719 222.224 C 211.719 222.695,211.969 223.047,212.305 223.047 C 212.773 223.047,212.891 223.630,212.891 225.951 C 212.891 230.290,213.693 231.580,216.016 230.973 C 217.164 230.672,216.967 229.759,215.723 229.616 C 214.087 229.428,213.787 223.047,215.414 223.047 C 215.960 223.047,216.406 222.871,216.406 222.656 C 216.406 222.441,216.406 222.134,216.406 221.973 C 216.406 221.812,216.011 221.680,215.527 221.680 C 214.821 221.680,214.624 221.430,214.526 220.410 C 214.403 219.137,214.285 219.034,213.379 219.399 M153.829 222.977 C 154.928 226.389,155.002 226.172,152.734 226.172 C 151.660 226.172,150.781 226.053,150.781 225.907 C 150.781 225.288,152.518 220.313,152.734 220.313 C 152.865 220.313,153.357 221.511,153.829 222.977 M160.156 225.192 C 160.156 230.618,161.357 232.090,164.511 230.530 C 165.687 229.948,166.016 229.903,166.016 230.322 C 166.016 230.618,166.367 230.859,166.797 230.859 C 167.535 230.859,167.578 230.599,167.578 226.172 C 167.578 221.829,167.524 221.484,166.837 221.484 C 166.179 221.484,166.080 221.852,165.958 224.764 C 165.808 228.344,165.127 229.688,163.464 229.688 C 162.080 229.688,161.759 228.896,161.637 225.179 C 161.541 222.219,161.420 221.669,160.840 221.558 C 160.227 221.441,160.156 221.817,160.156 225.192 M178.516 221.984 C 175.129 223.676,175.695 229.890,179.325 230.867 C 182.607 231.751,185.024 229.386,184.664 225.642 C 184.342 222.289,181.404 220.541,178.516 221.984 M187.109 226.172 C 187.109 230.599,187.153 230.859,187.891 230.859 C 188.592 230.859,188.672 230.599,188.672 228.308 C 188.672 224.788,189.436 223.047,190.982 223.047 C 192.592 223.047,192.969 223.931,192.969 227.709 C 192.969 230.599,193.033 230.859,193.750 230.859 C 194.464 230.859,194.531 230.599,194.531 227.821 C 194.531 224.445,195.144 223.047,196.624 223.047 C 198.138 223.047,198.438 223.770,198.438 227.422 C 198.438 230.599,198.497 230.859,199.219 230.859 C 200.417 230.859,200.394 224.043,199.190 222.514 C 198.215 221.273,196.589 221.153,195.267 222.224 C 194.371 222.950,194.336 222.950,193.413 222.224 C 192.193 221.264,190.981 221.287,189.701 222.294 L 188.672 223.104 188.672 222.294 C 188.672 221.745,188.421 221.484,187.891 221.484 C 187.153 221.484,187.109 221.745,187.109 226.172 M203.764 222.294 C 203.198 222.739,202.734 223.354,202.734 223.661 C 202.734 224.403,204.152 224.379,204.438 223.633 C 204.708 222.930,206.679 222.851,207.344 223.516 C 208.537 224.709,207.519 225.762,205.158 225.776 C 204.064 225.782,202.344 227.420,202.344 228.455 C 202.344 230.642,205.670 231.859,207.391 230.302 C 208.017 229.735,208.144 229.731,208.586 230.264 C 208.858 230.591,209.410 230.859,209.813 230.859 C 210.686 230.859,210.798 229.867,209.961 229.546 C 209.511 229.374,209.375 228.632,209.375 226.362 C 209.375 221.910,206.709 219.977,203.764 222.294 M219.141 226.172 C 219.141 230.599,219.184 230.859,219.922 230.859 C 220.660 230.859,220.703 230.599,220.703 226.172 C 220.703 221.745,220.660 221.484,219.922 221.484 C 219.184 221.484,219.141 221.745,219.141 226.172 M223.438 222.363 C 223.438 222.938,223.809 223.047,225.777 223.047 L 228.117 223.047 225.777 226.241 C 222.556 230.639,222.602 230.859,226.758 230.859 C 229.449 230.859,230.078 230.748,230.078 230.273 C 230.078 229.818,229.557 229.688,227.734 229.688 C 224.897 229.688,224.908 229.884,227.539 226.281 C 230.594 222.098,230.504 221.673,226.563 221.677 C 223.848 221.679,223.438 221.769,223.438 222.363 M233.789 221.956 C 232.992 222.413,232.066 223.434,232.044 223.880 C 232.011 224.521,233.513 224.438,233.927 223.776 C 234.577 222.734,236.563 222.807,237.145 223.895 C 237.726 224.981,236.769 225.781,234.886 225.781 C 233.294 225.781,232.029 226.952,232.037 228.418 C 232.052 231.016,234.752 231.981,236.848 230.138 C 237.508 229.558,237.594 229.561,237.942 230.184 C 238.406 231.013,239.844 231.081,239.844 230.273 C 239.844 229.951,239.686 229.688,239.493 229.688 C 239.300 229.688,239.081 228.178,239.005 226.333 C 238.824 221.933,236.796 220.232,233.789 221.956 M242.967 222.597 C 240.933 224.632,241.058 228.929,243.193 230.328 C 245.222 231.658,249.219 230.562,249.219 228.675 C 249.219 227.790,248.255 227.840,247.382 228.770 C 245.149 231.151,242.098 228.121,243.368 224.783 C 244.095 222.869,246.337 222.341,247.384 223.837 C 247.885 224.552,249.241 224.587,249.206 223.884 C 249.096 221.646,244.804 220.761,242.967 222.597 M251.563 226.172 C 251.563 230.599,251.606 230.859,252.344 230.859 C 253.082 230.859,253.125 230.599,253.125 226.172 C 253.125 221.745,253.082 221.484,252.344 221.484 C 251.606 221.484,251.563 221.745,251.563 226.172 M257.855 222.029 C 254.589 223.840,255.412 230.282,259.001 230.999 C 262.708 231.741,265.357 227.488,263.596 223.622 C 262.729 221.719,259.854 220.922,257.855 222.029 M266.406 226.172 C 266.406 230.773,266.422 230.859,267.285 230.858 C 268.122 230.856,268.164 230.709,268.166 227.772 C 268.167 224.258,268.830 223.047,270.750 223.047 C 272.271 223.047,272.656 223.989,272.656 227.709 C 272.656 230.599,272.721 230.859,273.438 230.859 C 274.755 230.859,274.606 223.789,273.260 222.443 C 272.074 221.257,270.391 221.198,268.998 222.294 L 267.969 223.104 267.969 222.294 C 267.969 221.745,267.717 221.484,267.188 221.484 C 266.450 221.484,266.406 221.745,266.406 226.172 M293.402 222.008 C 291.335 223.201,290.643 227.440,292.194 229.411 C 293.858 231.527,297.648 231.503,298.790 229.369 C 299.406 228.217,298.169 227.874,297.082 228.895 C 295.565 230.320,292.969 229.341,292.969 227.344 C 292.969 226.625,293.229 226.563,296.237 226.563 L 299.504 226.563 299.211 224.958 C 298.698 222.153,295.748 220.655,293.402 222.008 M181.875 223.346 C 184.191 224.892,183.152 229.688,180.501 229.688 C 178.942 229.688,178.060 228.514,178.028 226.397 C 177.988 223.755,180.045 222.124,181.875 223.346 M261.892 223.915 C 264.046 226.991,260.749 231.452,258.203 228.906 C 256.359 227.062,257.564 223.047,259.961 223.047 C 260.885 223.047,261.467 223.309,261.892 223.915 M286.172 223.346 C 288.406 224.837,287.458 229.688,284.933 229.688 C 282.726 229.688,281.530 226.057,283.030 223.915 C 283.636 223.050,285.282 222.752,286.172 223.346 M296.942 223.693 C 298.292 224.915,297.836 225.391,295.313 225.391 C 292.822 225.391,292.457 225.041,293.615 223.761 C 294.420 222.872,295.998 222.840,296.942 223.693 M207.813 227.411 C 207.813 228.635,206.695 229.688,205.396 229.688 C 203.258 229.688,203.514 227.380,205.706 226.902 C 207.613 226.485,207.813 226.534,207.813 227.411 M237.500 227.257 C 237.500 229.618,233.930 230.716,233.667 228.435 C 233.563 227.533,233.734 227.324,234.839 227.006 C 236.848 226.427,237.500 226.488,237.500 227.257 M148.438 244.285 L 148.438 250.781 149.449 250.781 C 150.439 250.781,150.457 250.733,150.328 248.437 L 150.195 246.092 152.070 246.093 C 159.287 246.096,158.648 238.443,151.393 237.978 L 148.438 237.788 148.438 244.285 M228.125 244.336 L 228.125 250.781 231.995 250.781 C 235.672 250.781,235.854 250.742,235.660 250.000 C 235.479 249.308,235.127 249.219,232.572 249.219 L 229.688 249.219 229.688 247.070 L 229.688 244.922 232.227 244.922 C 234.505 244.922,234.766 244.842,234.766 244.141 C 234.766 243.439,234.505 243.359,232.205 243.359 L 229.645 243.359 229.764 241.504 L 229.883 239.648 232.716 239.648 C 235.393 239.648,235.548 239.600,235.548 238.770 C 235.547 237.920,235.424 237.891,231.836 237.891 L 228.125 237.891 228.125 244.336 M316.687 238.394 C 316.378 239.201,316.982 239.941,317.820 239.779 C 318.858 239.579,318.782 238.118,317.725 237.968 C 317.269 237.903,316.802 238.094,316.687 238.394 M331.250 244.062 C 331.250 250.598,331.398 251.172,333.086 251.172 C 333.724 251.172,333.984 250.945,333.984 250.391 C 333.984 249.957,333.724 249.609,333.398 249.609 C 332.904 249.609,332.813 248.698,332.813 243.750 C 332.813 238.151,332.778 237.891,332.031 237.891 C 331.283 237.891,331.250 238.151,331.250 244.062 M154.492 240.234 C 156.279 241.717,154.748 244.531,152.155 244.531 L 150.460 244.531 150.328 242.154 C 150.255 240.846,150.283 239.687,150.391 239.577 C 150.735 239.226,153.885 239.731,154.492 240.234 M162.305 241.878 C 161.875 242.124,161.309 242.603,161.048 242.940 C 160.632 243.477,160.570 243.443,160.559 242.676 C 160.551 242.061,160.312 241.797,159.766 241.797 C 159.030 241.797,158.984 242.057,158.984 246.289 C 158.984 250.521,159.030 250.781,159.766 250.781 C 160.472 250.781,160.547 250.521,160.547 248.079 C 160.547 244.536,162.060 242.168,163.683 243.171 C 163.892 243.300,164.063 242.956,164.063 242.406 C 164.063 241.327,163.539 241.170,162.305 241.878 M168.120 241.771 C 164.836 243.170,164.665 249.085,167.866 250.603 C 170.973 252.078,173.828 250.001,173.828 246.265 C 173.828 242.844,170.940 240.570,168.120 241.771 M178.125 241.906 C 174.742 243.596,175.266 249.737,178.884 250.821 C 181.469 251.595,185.246 249.140,183.175 248.032 C 182.724 247.791,182.326 247.651,182.291 247.722 C 180.720 250.886,177.604 249.934,177.604 246.289 C 177.604 243.256,180.669 241.633,181.860 244.036 C 182.252 244.827,182.361 244.854,183.040 244.331 C 184.881 242.914,180.467 240.736,178.125 241.906 M187.018 242.546 C 183.989 245.253,185.759 250.977,189.626 250.977 C 191.230 250.977,193.359 249.736,193.359 248.802 C 193.359 248.078,192.012 248.088,191.332 248.818 C 189.983 250.266,187.111 249.277,187.108 247.363 C 187.108 246.759,187.468 246.694,190.233 246.807 L 193.359 246.934 193.359 245.751 C 193.359 241.985,189.710 240.141,187.018 242.546 M196.967 241.793 C 194.045 243.027,195.379 246.248,199.147 247.060 C 200.607 247.375,201.104 248.164,200.386 249.028 C 199.696 249.860,197.792 249.745,196.863 248.816 C 195.609 247.562,194.616 248.334,195.704 249.717 C 196.700 250.984,198.778 251.449,200.412 250.772 C 203.388 249.540,202.765 246.162,199.448 245.540 C 197.493 245.173,196.583 244.377,197.231 243.597 C 197.879 242.815,199.537 242.782,200.369 243.535 C 200.786 243.912,201.187 243.982,201.571 243.743 C 203.173 242.749,198.944 240.958,196.967 241.793 M206.836 241.757 C 202.397 243.677,203.685 250.977,208.462 250.977 C 213.618 250.977,214.103 242.250,208.984 241.595 C 208.232 241.498,207.266 241.571,206.836 241.757 M216.158 241.844 C 213.428 243.227,214.386 246.018,217.904 246.934 C 218.836 247.177,219.690 247.616,219.804 247.911 C 220.429 249.541,216.966 250.309,215.942 248.767 C 215.513 248.121,215.225 248.013,214.707 248.303 C 212.671 249.443,217.197 251.748,219.553 250.772 C 222.556 249.528,221.902 246.162,218.533 245.530 C 216.801 245.205,215.821 244.260,216.441 243.513 C 217.029 242.804,218.715 242.816,219.509 243.535 C 219.926 243.912,220.328 243.982,220.712 243.743 C 222.334 242.737,217.979 240.922,216.158 241.844 M241.113 241.868 C 240.630 242.109,240.234 242.456,240.234 242.638 C 240.234 242.820,240.040 242.969,239.802 242.969 C 239.564 242.969,239.471 242.705,239.594 242.383 C 239.747 241.984,239.573 241.797,239.050 241.797 C 238.330 241.797,238.281 242.081,238.281 246.289 C 238.281 250.521,238.327 250.781,239.063 250.781 C 239.777 250.781,239.844 250.521,239.844 247.743 C 239.844 244.367,240.456 242.969,241.936 242.969 C 243.450 242.969,243.750 243.692,243.750 247.344 C 243.750 250.648,243.784 250.781,244.629 250.782 C 245.462 250.783,245.501 250.653,245.380 248.304 C 245.217 245.166,246.028 242.966,247.343 242.975 C 249.138 242.987,249.406 243.505,249.551 247.251 C 249.673 250.411,249.765 250.781,250.429 250.781 C 251.308 250.781,251.524 245.657,250.740 243.409 C 250.009 241.311,248.129 240.810,246.320 242.233 C 245.370 242.980,245.225 243.000,244.803 242.433 C 244.192 241.615,242.224 241.313,241.113 241.868 M256.836 241.873 C 256.406 242.117,255.926 242.507,255.768 242.740 C 255.593 242.998,255.478 242.897,255.475 242.480 C 255.471 242.059,255.169 241.797,254.688 241.797 C 253.939 241.797,253.906 242.057,253.906 248.047 C 253.906 254.036,253.939 254.297,254.688 254.297 C 255.382 254.297,255.469 254.036,255.469 251.941 L 255.469 249.586 256.624 250.440 C 260.428 253.252,264.237 245.761,260.638 242.546 C 259.294 241.345,258.131 241.139,256.836 241.873 M267.217 242.418 C 266.061 243.391,266.016 243.398,266.016 242.613 C 266.016 242.057,265.766 241.797,265.234 241.797 C 264.498 241.797,264.453 242.057,264.453 246.289 C 264.453 250.687,264.471 250.781,265.332 250.780 C 266.164 250.779,266.211 250.626,266.211 247.891 C 266.211 244.683,266.913 243.359,268.615 243.359 C 269.332 243.359,269.531 243.147,269.531 242.383 C 269.531 241.118,268.747 241.130,267.217 242.418 M272.375 242.781 C 269.741 245.415,271.122 250.460,274.630 251.020 C 276.720 251.354,279.955 248.924,278.278 248.280 C 277.865 248.122,277.339 248.324,276.879 248.818 C 275.540 250.255,273.326 249.616,272.855 247.656 L 272.620 246.680 275.861 246.680 L 279.102 246.680 279.016 245.508 C 278.737 241.684,275.005 240.152,272.375 242.781 M282.279 242.216 C 280.189 243.860,281.045 245.809,284.324 246.875 C 285.493 247.255,286.175 247.719,286.265 248.195 C 286.559 249.738,283.996 250.123,282.540 248.755 C 281.437 247.719,280.517 248.240,281.199 249.514 C 282.671 252.265,287.891 251.232,287.891 248.191 C 287.891 246.695,287.074 246.015,284.448 245.323 C 283.041 244.952,282.784 244.738,282.886 244.021 C 283.038 242.953,284.915 242.630,285.883 243.506 C 286.340 243.919,286.717 243.986,287.118 243.723 C 287.600 243.408,287.514 243.184,286.599 242.376 C 285.261 241.192,283.657 241.132,282.279 242.216 M291.839 241.900 C 290.302 242.694,289.626 243.993,290.615 244.251 C 291.152 244.392,291.548 244.214,291.816 243.715 C 292.580 242.286,295.313 242.965,295.313 244.583 C 295.313 245.288,294.913 245.472,292.492 245.880 C 289.914 246.314,288.988 248.879,290.873 250.362 C 292.167 251.380,293.367 251.391,294.633 250.394 C 295.468 249.737,295.657 249.707,295.846 250.199 C 296.131 250.943,298.047 250.976,298.047 250.237 C 298.047 249.938,297.783 249.592,297.461 249.468 C 297.011 249.296,296.875 248.554,296.875 246.284 C 296.875 242.041,294.898 240.321,291.839 241.900 M303.320 241.878 C 302.891 242.124,302.325 242.603,302.063 242.940 C 301.648 243.477,301.586 243.443,301.575 242.676 C 301.566 242.061,301.327 241.797,300.781 241.797 C 300.045 241.797,300.000 242.057,300.000 246.289 C 300.000 250.521,300.045 250.781,300.781 250.781 C 301.487 250.781,301.563 250.521,301.563 248.079 C 301.563 244.536,303.076 242.168,304.699 243.171 C 304.908 243.300,305.078 242.956,305.078 242.406 C 305.078 241.327,304.555 241.170,303.320 241.878 M308.717 241.800 C 307.529 242.278,306.772 243.736,307.479 244.184 C 308.249 244.672,308.594 244.606,308.594 243.972 C 308.594 243.261,309.928 242.827,311.161 243.136 C 311.837 243.306,312.109 243.645,312.109 244.317 C 312.109 245.300,311.837 245.450,309.289 245.880 C 306.750 246.308,305.893 248.506,307.599 250.213 C 308.744 251.358,310.128 251.441,311.363 250.441 C 312.128 249.822,312.348 249.792,312.801 250.246 C 313.096 250.540,313.676 250.781,314.090 250.781 C 314.979 250.781,315.105 249.793,314.258 249.468 C 313.805 249.294,313.672 248.537,313.672 246.134 C 313.672 241.993,311.958 240.494,308.717 241.800 M322.852 241.857 C 322.024 242.310,321.094 243.327,321.094 243.779 C 321.094 244.437,322.567 244.374,322.989 243.697 C 323.661 242.621,325.709 242.719,326.149 243.848 C 326.555 244.892,325.755 245.703,324.320 245.703 C 322.224 245.703,321.040 246.774,321.170 248.553 C 321.351 251.034,324.118 251.998,325.910 250.206 C 326.416 249.700,326.542 249.700,326.962 250.206 C 327.584 250.956,328.906 250.948,328.906 250.195 C 328.906 249.873,328.730 249.609,328.516 249.609 C 328.296 249.609,328.125 248.522,328.125 247.129 C 328.125 242.343,325.946 240.165,322.852 241.857 M337.543 241.951 C 334.409 243.688,334.930 249.823,338.297 250.832 C 340.740 251.564,343.992 249.695,342.635 248.338 C 342.312 248.016,341.959 248.125,341.289 248.755 C 339.677 250.269,337.111 249.456,337.108 247.430 C 337.108 246.742,337.366 246.690,340.233 246.807 L 343.359 246.934 343.359 245.695 C 343.359 242.477,340.229 240.462,337.543 241.951 M346.967 241.793 C 344.003 243.045,345.324 246.236,349.147 247.060 C 350.607 247.375,351.104 248.164,350.386 249.028 C 349.696 249.860,347.792 249.745,346.863 248.816 C 345.609 247.562,344.616 248.334,345.704 249.717 C 348.066 252.720,353.546 250.411,352.018 247.057 C 351.714 246.390,350.979 245.946,349.437 245.498 C 347.043 244.802,346.580 244.381,347.280 243.538 C 347.886 242.807,349.563 242.806,350.369 243.535 C 350.786 243.912,351.187 243.982,351.571 243.743 C 353.173 242.749,348.944 240.958,346.967 241.793 M316.797 246.289 C 316.797 250.521,316.842 250.781,317.578 250.781 C 318.314 250.781,318.359 250.521,318.359 246.289 C 318.359 242.057,318.314 241.797,317.578 241.797 C 316.842 241.797,316.797 242.057,316.797 246.289 M171.484 243.750 C 173.291 245.556,172.075 249.609,169.727 249.609 C 167.494 249.609,166.285 245.994,167.796 243.837 C 168.569 242.732,170.423 242.688,171.484 243.750 M191.189 243.837 C 192.127 245.177,191.968 245.313,189.453 245.313 C 188.164 245.313,187.109 245.176,187.109 245.009 C 187.109 244.113,188.424 242.969,189.453 242.969 C 190.176 242.969,190.799 243.281,191.189 243.837 M210.156 243.750 C 212.040 245.634,210.730 249.609,208.225 249.609 C 206.724 249.609,205.859 248.364,205.859 246.202 C 205.859 244.261,206.874 242.969,208.398 242.969 C 208.936 242.969,209.727 243.320,210.156 243.750 M259.774 244.043 C 260.424 244.867,260.575 245.465,260.422 246.612 C 259.869 250.755,255.469 250.545,255.469 246.376 C 255.469 243.112,257.972 241.756,259.774 244.043 M276.629 243.615 C 277.980 244.837,277.523 245.313,275.000 245.313 C 272.486 245.313,272.326 245.177,273.264 243.837 C 273.991 242.799,275.610 242.693,276.629 243.615 M341.189 243.837 C 342.127 245.177,341.968 245.313,339.453 245.313 C 336.963 245.313,336.598 244.963,337.756 243.683 C 338.659 242.685,340.438 242.765,341.189 243.837 M295.313 247.400 C 295.313 248.917,293.376 250.205,292.090 249.543 C 290.206 248.574,291.763 246.969,295.020 246.524 C 295.181 246.502,295.313 246.897,295.313 247.400 M312.109 247.433 C 312.109 249.431,308.624 250.570,308.267 248.689 C 308.057 247.581,309.205 246.881,311.816 246.524 C 311.978 246.502,312.109 246.911,312.109 247.433 M326.563 247.222 C 326.563 248.420,325.263 249.707,324.053 249.707 C 321.624 249.707,321.793 247.460,324.266 246.876 C 326.312 246.393,326.563 246.431,326.563 247.222 M194.397 257.750 C 194.322 257.892,194.278 259.019,194.298 260.254 C 194.338 262.598,194.171 262.892,193.359 261.914 C 191.845 260.089,188.293 261.988,187.744 264.916 C 187.007 268.844,191.086 272.530,193.499 270.117 C 193.821 269.795,194.185 269.531,194.308 269.531 C 194.431 269.531,194.531 269.795,194.531 270.117 C 194.531 270.445,194.880 270.703,195.322 270.703 C 196.462 270.703,196.358 257.758,195.216 257.591 C 194.841 257.536,194.473 257.608,194.397 257.750 M162.891 264.232 C 162.891 270.410,162.925 270.703,163.660 270.703 C 164.379 270.703,164.437 270.381,164.539 265.795 L 164.648 260.887 166.377 264.819 C 168.729 270.166,169.205 270.169,171.535 264.853 C 173.678 259.961,173.659 259.952,173.503 265.820 L 173.374 270.703 174.382 270.703 L 175.391 270.703 175.391 264.258 L 175.391 257.813 174.286 257.813 C 173.259 257.813,173.031 258.131,171.063 262.326 L 168.945 266.839 166.957 262.423 C 165.209 258.539,164.845 257.993,163.930 257.884 L 162.891 257.761 162.891 264.232 M198.586 258.380 C 198.288 259.157,198.729 259.766,199.591 259.766 C 200.340 259.766,200.942 258.779,200.564 258.168 C 200.217 257.606,198.826 257.755,198.586 258.380 M209.375 260.156 C 209.375 262.651,209.266 262.837,208.343 261.914 C 207.023 260.595,204.310 261.368,203.281 263.357 C 201.106 267.564,204.983 272.563,208.507 270.095 C 209.293 269.545,209.375 269.545,209.375 270.095 C 209.375 270.443,209.710 270.703,210.156 270.703 C 210.906 270.703,210.938 270.443,210.938 264.258 C 210.938 258.073,210.906 257.813,210.156 257.813 C 209.462 257.813,209.375 258.073,209.375 260.156 M262.500 264.258 C 262.500 270.443,262.532 270.703,263.281 270.703 C 264.031 270.703,264.063 270.443,264.063 264.258 C 264.063 258.073,264.031 257.813,263.281 257.813 C 262.532 257.813,262.500 258.073,262.500 264.258 M268.652 263.968 C 266.099 270.959,266.156 270.703,267.155 270.703 C 267.689 270.703,268.063 270.226,268.457 269.043 L 269.010 267.383 271.680 267.383 L 274.349 267.383 274.902 269.043 C 275.346 270.374,275.639 270.703,276.382 270.703 L 277.309 270.703 276.400 268.262 C 275.900 266.919,274.834 264.019,274.030 261.816 C 271.887 255.941,271.533 256.082,268.652 263.968 M272.801 262.988 L 273.793 265.625 271.666 265.625 L 269.538 265.625 270.511 263.039 C 271.046 261.617,271.484 260.358,271.484 260.240 C 271.484 259.715,271.880 260.541,272.801 262.988 M149.199 262.325 C 148.410 263.166,148.353 263.379,148.838 263.686 C 149.594 264.164,150.000 264.156,150.000 263.664 C 150.000 262.912,151.782 262.381,152.685 262.864 C 154.348 263.754,153.761 265.101,151.582 265.390 C 148.546 265.793,147.092 268.186,148.828 269.922 C 149.745 270.838,151.809 270.956,152.951 270.156 C 153.620 269.687,153.838 269.687,154.480 270.156 C 154.891 270.457,155.458 270.703,155.739 270.703 C 156.446 270.703,156.384 269.276,155.664 268.999 C 155.215 268.827,155.078 268.087,155.078 265.833 C 155.078 261.416,151.858 259.495,149.199 262.325 M179.554 262.130 C 176.241 264.737,177.986 270.703,182.062 270.703 C 184.067 270.703,185.985 269.162,185.183 268.196 C 184.689 267.601,184.586 267.608,183.828 268.288 C 182.043 269.890,180.459 269.625,179.756 267.606 L 179.338 266.406 182.638 266.406 C 185.914 266.406,185.938 266.399,185.938 265.410 C 185.938 262.013,182.167 260.075,179.554 262.130 M198.828 266.016 C 198.828 270.443,198.872 270.703,199.609 270.703 C 200.347 270.703,200.391 270.443,200.391 266.016 C 200.391 261.589,200.347 261.328,199.609 261.328 C 198.872 261.328,198.828 261.589,198.828 266.016 M214.176 262.351 C 212.747 263.780,213.960 264.662,215.441 263.271 C 216.535 262.243,218.168 262.452,218.554 263.669 C 218.910 264.792,218.582 265.099,216.708 265.398 C 212.390 266.087,211.788 270.703,216.016 270.703 C 216.734 270.703,217.643 270.412,218.036 270.057 C 218.700 269.455,218.800 269.455,219.464 270.057 C 219.857 270.412,220.366 270.703,220.594 270.703 C 221.278 270.703,221.524 269.522,220.892 269.279 C 220.453 269.111,220.313 268.367,220.313 266.222 C 220.313 261.519,217.060 259.467,214.176 262.351 M228.773 262.130 C 225.577 264.645,227.321 270.703,231.242 270.703 C 232.686 270.703,235.156 269.220,235.156 268.353 C 235.156 267.602,233.724 267.803,232.893 268.671 C 230.478 271.197,227.292 266.419,229.437 263.486 C 230.190 262.456,232.402 262.514,233.111 263.582 C 233.680 264.440,234.766 264.361,234.766 263.463 C 234.766 261.608,230.612 260.684,228.773 262.130 M238.574 261.750 C 236.121 263.179,236.172 268.975,238.650 270.301 C 242.242 272.223,246.060 268.680,244.928 264.474 C 244.212 261.815,240.900 260.395,238.574 261.750 M247.582 266.015 C 247.693 270.354,247.759 270.703,248.460 270.703 C 249.148 270.703,249.219 270.411,249.219 267.560 C 249.219 264.744,249.318 264.318,250.178 263.459 C 252.325 261.311,253.516 262.687,253.516 267.316 C 253.516 270.443,253.576 270.703,254.297 270.703 C 255.026 270.703,255.078 270.443,255.078 266.797 C 255.078 261.718,253.067 259.712,250.172 261.902 C 249.197 262.640,248.828 262.643,248.828 261.914 C 248.828 261.592,248.521 261.328,248.145 261.327 C 247.525 261.327,247.472 261.764,247.582 266.015 M183.416 263.459 C 184.787 264.829,184.614 265.226,182.617 265.293 C 181.650 265.325,180.640 265.369,180.371 265.391 C 179.475 265.462,179.595 263.781,180.533 263.124 C 181.747 262.273,182.294 262.337,183.416 263.459 M193.121 263.379 C 195.085 265.146,194.478 268.782,192.124 269.348 C 189.567 269.964,188.238 265.075,190.482 263.310 C 191.770 262.297,191.923 262.301,193.121 263.379 M208.258 263.247 C 210.214 264.831,209.105 269.531,206.775 269.531 C 206.467 269.531,205.783 269.100,205.256 268.572 C 202.656 265.973,205.467 260.987,208.258 263.247 M241.920 262.949 C 243.141 263.592,243.347 264.035,243.353 266.039 C 243.364 269.128,241.176 270.508,239.277 268.610 C 236.836 266.168,239.045 261.436,241.920 262.949 M153.516 267.254 C 153.516 269.104,151.100 270.271,150.004 268.950 C 149.062 267.815,150.443 266.493,152.637 266.431 C 153.286 266.413,153.516 266.628,153.516 267.254 M218.750 267.188 C 218.750 268.089,217.448 269.531,216.634 269.531 C 214.751 269.531,214.064 267.476,215.723 266.809 C 217.360 266.151,218.750 266.325,218.750 267.188 " stroke="none" fill="#193026" fill-rule="evenodd"></path><path id="path1" d="M88.086 140.006 C 66.296 146.193,57.925 173.231,72.802 189.371 C 75.314 192.096,80.355 195.271,82.216 195.300 C 82.639 195.307,81.760 194.723,80.262 194.002 C 59.034 183.785,62.557 149.975,85.726 141.565 C 99.471 136.576,112.164 144.372,108.791 155.731 C 106.922 162.024,101.333 164.270,91.474 162.689 C 81.459 161.083,74.762 167.564,76.528 177.150 C 78.050 185.405,83.904 190.039,92.811 190.039 C 98.420 190.039,99.219 190.304,99.219 192.167 C 99.219 195.320,90.253 197.272,83.984 195.485 C 83.163 195.250,83.088 195.292,83.515 195.748 C 85.450 197.813,98.142 196.210,99.420 193.739 C 101.168 190.358,99.944 189.453,93.619 189.453 C 81.268 189.453,73.133 178.434,78.221 168.596 C 80.836 163.538,84.897 162.297,94.336 163.671 C 111.258 166.133,116.332 146.375,100.436 139.917 C 97.536 138.739,92.418 138.775,88.086 140.006 M235.742 154.633 C 231.520 157.241,231.603 162.427,235.900 164.571 C 240.863 167.047,246.298 161.157,243.254 156.601 C 241.577 154.090,238.097 153.178,235.742 154.633 M165.913 154.662 C 148.907 157.034,141.229 179.526,152.303 194.531 C 158.491 202.916,171.495 205.354,181.641 200.033 C 183.442 199.088,188.672 194.098,188.672 193.325 C 188.672 193.088,189.004 192.427,189.410 191.857 C 190.975 189.660,192.230 184.455,192.106 180.676 L 191.992 177.179 190.625 176.873 C 189.873 176.705,185.083 176.681,179.980 176.819 L 170.703 177.069 170.703 181.255 L 170.703 185.441 175.522 185.627 C 181.535 185.859,181.534 185.858,180.102 188.367 C 176.104 195.366,164.002 195.076,160.156 187.889 C 154.200 176.761,160.220 163.047,170.742 163.772 C 174.774 164.050,180.078 167.692,180.078 170.182 C 180.078 171.718,181.887 171.632,185.936 169.903 C 190.684 167.876,190.526 168.090,189.284 165.377 C 185.689 157.524,176.290 153.215,165.913 154.662 M241.050 155.578 C 245.276 158.426,243.350 164.470,238.222 164.447 C 236.445 164.440,235.156 163.720,234.094 162.144 C 231.220 157.880,236.738 152.672,241.050 155.578 M252.734 154.961 C 251.553 155.050,250.444 155.263,250.271 155.435 C 249.815 155.887,249.840 201.168,250.297 201.625 C 250.812 202.140,278.449 202.104,279.072 201.587 C 279.756 201.020,279.876 193.137,279.208 192.704 C 278.935 192.527,274.821 192.378,270.066 192.372 C 263.209 192.363,261.284 192.246,260.757 191.809 C 260.146 191.302,260.103 189.859,260.222 173.891 L 260.352 156.525 258.925 155.783 C 257.289 154.933,255.777 154.732,252.734 154.961 M317.513 155.352 C 317.194 155.737,317.093 159.327,317.162 167.887 C 317.214 174.485,317.282 184.717,317.312 190.625 C 317.374 202.841,317.177 202.208,320.860 202.043 C 324.889 201.863,325.255 201.733,325.756 200.295 C 326.038 199.488,326.305 199.194,326.488 199.489 C 326.646 199.745,328.041 200.580,329.588 201.345 C 340.146 206.562,351.953 197.846,351.953 184.835 C 351.953 172.086,339.370 162.858,329.824 168.606 C 328.623 169.330,327.565 169.922,327.474 169.922 C 327.382 169.922,327.341 166.970,327.382 163.361 C 327.471 155.606,327.357 155.247,324.713 154.929 C 321.580 154.552,318.003 154.762,317.513 155.352 M175.020 155.632 C 180.455 156.601,184.298 159.154,187.476 163.907 C 189.949 167.603,189.941 167.733,187.207 168.740 C 185.972 169.195,184.184 169.858,183.234 170.214 C 181.596 170.827,181.485 170.824,181.085 170.153 C 175.291 160.417,163.577 160.707,158.824 170.703 C 157.182 174.158,157.026 182.285,158.530 186.034 C 162.936 197.018,178.425 197.019,181.813 186.035 L 182.084 185.156 176.784 185.156 L 171.484 185.156 171.484 181.439 L 171.484 177.721 181.543 177.825 L 191.602 177.930 191.541 181.055 C 191.043 206.699,155.182 210.448,148.571 185.547 C 143.832 167.696,157.294 152.469,175.020 155.632 M258.897 156.467 L 259.766 157.076 259.766 175.015 L 259.766 192.955 269.238 193.059 L 278.711 193.164 278.711 197.266 L 278.711 201.367 264.551 201.470 L 250.391 201.572 250.391 178.716 L 250.391 155.859 254.210 155.859 C 257.035 155.859,258.255 156.018,258.897 156.467 M326.595 156.922 C 326.838 157.560,326.951 160.824,326.879 165.075 L 326.758 172.164 328.237 170.684 C 335.721 163.196,348.996 170.138,350.868 182.520 C 353.089 197.214,336.236 208.835,327.203 198.837 L 325.868 197.360 325.646 198.728 C 325.261 201.104,324.515 201.563,321.033 201.563 L 317.969 201.563 317.969 178.711 L 317.969 155.859 322.080 155.859 L 326.191 155.859 326.595 156.922 M119.922 156.745 C 117.568 157.911,116.161 164.767,117.796 167.101 C 118.130 167.578,118.293 167.969,118.158 167.969 C 117.688 167.969,118.953 168.958,120.038 169.438 C 121.683 170.167,126.764 170.064,127.963 169.278 C 131.202 167.156,131.145 157.863,127.886 156.624 C 126.481 156.090,121.079 156.172,119.922 156.745 M127.529 157.588 C 130.320 158.754,130.490 167.275,127.751 168.741 C 126.160 169.592,120.464 169.233,119.270 168.206 C 117.183 166.411,117.589 158.859,119.838 157.638 C 121.215 156.891,125.789 156.861,127.529 157.588 M52.742 166.842 C 45.919 169.565,46.553 188.428,53.882 200.781 C 64.551 218.763,87.049 226.426,106.371 218.660 C 137.310 206.225,132.847 165.905,100.638 166.861 C 97.080 166.967,96.100 167.124,95.549 167.676 C 95.173 168.052,94.705 168.359,94.509 168.359 C 90.984 168.359,86.828 175.232,88.098 178.960 C 89.306 182.506,91.654 182.849,95.742 180.078 C 105.096 173.737,114.654 185.018,107.888 194.413 C 102.526 201.858,88.729 204.234,78.653 199.449 C 69.219 194.969,63.775 187.166,62.484 176.275 C 61.765 170.209,56.669 165.275,52.742 166.842 M208.520 167.175 C 197.437 169.183,190.953 183.593,196.585 193.701 C 203.846 206.732,223.780 205.421,228.513 191.602 C 233.236 177.811,222.463 164.649,208.520 167.175 M55.970 167.714 C 59.477 169.184,61.014 171.759,61.884 177.625 C 64.002 191.910,74.734 201.926,88.672 202.627 C 95.987 202.996,102.500 200.908,106.650 196.866 C 116.761 187.017,106.109 171.429,95.043 179.879 C 91.607 182.502,88.522 181.158,88.522 177.038 C 88.522 167.676,104.572 164.337,116.053 171.312 C 128.807 179.059,130.330 197.222,119.216 209.036 C 100.367 229.073,65.906 223.398,53.181 198.161 C 46.045 184.007,47.848 164.311,55.970 167.714 M235.693 167.455 C 233.105 167.663,233.213 166.926,233.207 184.485 C 233.203 199.312,233.343 200.592,235.075 201.519 C 235.856 201.937,242.840 202.212,243.213 201.839 C 243.516 201.536,243.834 172.732,243.554 170.811 C 243.148 168.015,240.863 167.040,235.693 167.455 M291.909 167.754 C 287.737 169.058,284.256 172.252,283.009 175.920 C 282.071 178.682,282.474 179.297,285.226 179.297 C 286.287 179.297,287.916 179.489,288.848 179.723 C 290.915 180.244,292.068 179.755,292.640 178.115 C 293.872 174.580,301.563 175.441,301.563 179.114 L 301.563 180.358 298.535 180.828 C 296.870 181.086,294.897 181.390,294.150 181.503 C 284.529 182.963,279.676 189.286,282.666 196.463 C 285.211 202.571,292.492 204.499,299.515 200.924 L 302.559 199.374 303.135 200.566 L 303.711 201.758 308.008 201.758 L 312.305 201.758 312.218 199.805 C 312.170 198.730,311.994 192.482,311.827 185.919 C 311.508 173.388,311.557 173.720,309.681 171.468 C 306.620 167.795,297.725 165.936,291.909 167.754 M218.874 169.101 C 229.753 173.394,232.571 189.917,223.772 197.828 C 213.052 207.466,196.143 200.732,195.400 186.530 C 194.697 173.079,206.586 164.252,218.874 169.101 M303.976 168.712 C 306.720 169.571,309.101 171.518,310.232 173.828 L 311.284 175.977 311.404 188.770 L 311.523 201.563 307.932 201.563 C 303.903 201.562,303.125 201.083,303.125 198.597 L 303.125 197.369 301.777 198.640 C 294.003 205.972,281.141 200.917,282.612 191.109 C 283.443 185.569,286.314 183.754,297.016 182.003 L 302.430 181.117 302.235 179.380 C 301.685 174.508,293.445 173.564,291.833 178.189 C 291.419 179.376,291.367 179.398,289.553 179.144 C 288.531 179.001,286.685 178.776,285.449 178.644 C 280.087 178.072,285.541 170.102,292.479 168.373 C 294.373 167.901,302.114 168.129,303.976 168.712 M242.222 169.477 C 242.929 170.350,242.969 171.224,242.969 185.981 L 242.969 201.563 239.496 201.563 C 236.660 201.563,235.855 201.426,235.102 200.816 L 234.180 200.070 234.069 184.176 L 233.959 168.283 237.717 168.419 C 241.111 168.541,241.549 168.644,242.222 169.477 M331.445 175.191 C 330.586 175.509,329.840 175.772,329.788 175.775 C 327.593 175.911,325.683 185.054,326.940 189.413 C 328.927 196.307,337.756 197.055,340.641 190.574 C 344.410 182.105,338.677 172.515,331.445 175.191 M209.814 175.370 C 202.845 177.129,202.048 191.134,208.744 194.175 C 214.293 196.695,219.487 193.212,220.166 186.515 C 220.945 178.838,216.222 173.753,209.814 175.370 M213.994 175.993 C 218.431 177.310,220.522 182.038,219.341 188.086 C 218.511 192.341,216.736 193.750,212.208 193.750 L 208.850 193.750 207.209 192.037 C 202.710 187.342,204.283 177.702,209.832 175.971 C 211.991 175.297,211.646 175.295,213.994 175.993 M337.798 176.423 C 343.362 180.516,341.829 193.029,335.647 193.975 C 330.271 194.798,327.216 191.471,327.190 184.766 C 327.160 177.147,332.777 172.729,337.798 176.423 M298.242 187.353 C 291.994 188.323,290.820 189.068,290.820 192.067 C 290.820 196.620,298.489 197.114,301.195 192.736 C 302.048 191.357,302.760 186.679,302.105 186.763 C 301.914 186.788,300.176 187.053,298.242 187.353 M301.650 189.400 C 301.360 193.890,295.308 196.803,292.456 193.826 C 289.918 191.177,291.405 189.236,296.694 188.295 C 301.840 187.378,301.781 187.365,301.650 189.400 M260.919 217.002 C 260.414 217.272,259.904 217.759,259.786 218.084 C 259.667 218.408,258.630 219.665,257.482 220.877 C 254.934 223.565,254.297 223.373,254.297 219.916 C 254.297 217.856,254.216 217.642,253.347 217.425 C 251.366 216.927,250.391 217.740,250.391 219.889 C 250.391 222.269,250.063 222.507,248.255 221.440 C 244.972 219.503,239.941 222.145,240.358 225.586 C 240.462 226.445,240.418 227.494,240.259 227.915 C 239.825 229.069,239.353 226.909,239.670 225.219 C 240.302 221.850,236.675 219.498,233.594 221.280 C 231.692 222.379,231.534 222.402,230.983 221.645 C 230.523 221.015,229.786 220.868,226.254 220.703 L 222.070 220.508 221.947 219.231 C 221.689 216.551,218.290 216.143,217.730 218.724 C 217.345 220.499,217.196 220.771,216.699 220.607 C 216.279 220.469,215.510 219.302,215.133 218.232 C 214.810 217.317,212.932 218.564,211.786 220.455 C 210.349 222.825,210.240 223.657,211.328 223.941 C 212.018 224.122,212.109 224.474,212.109 226.942 C 212.109 231.508,213.337 232.355,219.036 231.719 C 220.705 231.533,226.172 231.411,231.185 231.447 L 240.299 231.514 240.905 230.589 C 241.498 229.684,241.523 229.680,242.045 230.426 C 243.091 231.918,247.213 232.193,248.627 230.865 C 249.551 229.997,251.172 230.266,251.172 231.288 C 251.172 232.214,253.703 231.451,254.218 230.371 C 254.846 229.053,255.576 229.002,256.374 230.219 C 257.203 231.485,259.812 232.127,261.638 231.515 C 265.251 230.304,266.129 223.655,262.927 221.763 C 261.639 221.003,261.669 219.493,262.990 218.568 C 264.569 217.462,262.701 216.049,260.919 217.002 M287.598 216.700 C 286.874 216.824,286.718 217.106,286.713 218.289 C 286.705 220.256,286.414 220.559,284.317 220.790 C 279.214 221.350,278.411 230.346,283.361 231.495 C 286.298 232.176,290.683 231.510,290.045 230.479 C 289.946 230.319,289.831 227.421,289.789 224.040 C 289.706 217.381,289.409 216.387,287.598 216.700 M151.513 217.832 C 150.955 218.502,149.563 221.962,148.629 225.000 C 148.331 225.967,147.795 227.590,147.437 228.607 C 146.308 231.815,148.577 233.279,149.869 230.176 C 151.046 227.349,155.078 227.189,155.078 229.969 C 155.078 231.316,156.604 231.892,158.590 231.297 C 159.697 230.966,160.374 230.948,160.914 231.238 C 161.334 231.462,162.082 231.648,162.577 231.650 C 168.972 231.678,168.750 231.845,168.750 227.002 C 168.750 225.282,168.913 223.773,169.113 223.650 C 169.629 223.331,169.888 224.471,169.864 226.953 C 169.826 230.729,170.797 231.903,173.683 231.573 C 175.137 231.407,175.517 229.284,174.285 228.209 C 172.983 227.070,172.812 224.289,174.018 223.830 C 175.274 223.353,175.299 222.115,174.075 220.977 C 173.566 220.504,173.028 219.565,172.881 218.890 C 172.533 217.297,171.329 217.526,170.227 219.394 C 169.527 220.579,169.282 220.704,167.637 220.709 C 164.953 220.718,164.781 220.936,164.845 224.259 C 164.921 228.181,164.948 228.042,164.021 228.538 C 162.705 229.242,162.323 228.435,162.109 224.494 C 161.922 221.041,161.876 220.893,160.959 220.764 C 159.432 220.548,158.984 221.609,158.984 225.442 C 158.984 229.029,158.428 230.357,157.979 227.843 C 157.834 227.031,157.298 225.439,156.787 224.305 C 156.277 223.171,155.859 222.066,155.859 221.850 C 155.859 219.323,152.701 216.403,151.513 217.832 M220.699 218.159 C 221.348 218.941,220.916 219.922,219.922 219.922 C 219.479 219.922,219.014 219.656,218.889 219.331 C 218.665 218.746,219.353 217.578,219.922 217.578 C 220.084 217.578,220.434 217.840,220.699 218.159 M253.516 219.156 C 253.516 220.014,252.773 220.327,251.855 219.855 C 250.980 219.405,250.978 218.507,251.851 218.018 C 252.674 217.558,253.516 218.133,253.516 219.156 M261.855 218.917 C 260.914 220.049,259.013 220.921,259.453 220.020 C 260.568 217.729,260.715 217.578,261.820 217.578 L 262.968 217.578 261.855 218.917 M289.063 224.219 C 289.063 230.503,289.022 230.859,288.314 230.859 C 287.902 230.859,287.502 230.669,287.424 230.437 C 287.334 230.166,286.860 230.258,286.100 230.694 C 282.945 232.504,279.732 228.796,280.852 224.636 C 281.573 221.960,284.514 220.608,286.534 222.025 C 287.274 222.544,287.299 222.489,287.169 220.648 C 287.000 218.276,287.250 217.578,288.269 217.578 C 289.035 217.578,289.063 217.804,289.063 224.219 M155.970 224.121 C 158.556 231.242,158.483 230.859,157.242 230.859 C 156.460 230.859,156.194 230.569,155.813 229.297 L 155.345 227.734 152.734 227.734 L 150.124 227.734 149.656 229.297 C 149.274 230.569,149.009 230.859,148.227 230.859 C 147.034 230.859,146.894 231.585,149.436 224.583 C 152.744 215.472,152.828 215.466,155.970 224.121 M173.266 221.484 C 173.958 221.484,174.219 221.698,174.219 222.266 C 174.219 222.842,173.958 223.047,173.226 223.047 C 172.235 223.047,172.234 223.049,172.347 226.270 C 172.450 229.194,172.533 229.492,173.242 229.492 C 174.116 229.492,174.779 230.269,174.412 230.862 C 173.988 231.549,172.023 231.279,171.252 230.428 C 170.675 229.790,170.477 228.870,170.370 226.326 C 170.266 223.844,170.100 223.047,169.686 223.047 C 168.955 223.047,168.987 221.909,169.727 221.626 C 170.049 221.502,170.313 221.007,170.313 220.526 C 170.313 218.911,172.045 218.585,172.192 220.172 C 172.293 221.270,172.469 221.484,173.266 221.484 M214.770 220.117 C 214.621 221.392,214.684 221.484,215.703 221.484 C 216.536 221.484,216.797 221.670,216.797 222.266 C 216.797 222.839,216.536 223.047,215.820 223.047 C 214.736 223.047,214.666 223.315,214.811 226.935 C 214.911 229.440,215.024 229.688,216.067 229.688 C 217.288 229.688,216.819 231.029,215.548 231.176 C 213.581 231.404,212.891 230.155,212.891 226.367 C 212.891 223.676,212.780 223.047,212.305 223.047 C 211.979 223.047,211.719 222.700,211.719 222.266 C 211.719 221.832,211.979 221.484,212.305 221.484 C 212.666 221.484,212.891 221.118,212.891 220.527 C 212.891 219.661,213.729 218.792,214.594 218.762 C 214.778 218.755,214.857 219.365,214.770 220.117 M151.678 223.242 L 150.852 225.781 152.734 225.781 L 154.617 225.781 153.791 223.242 C 153.337 221.846,152.862 220.703,152.734 220.703 C 152.607 220.703,152.132 221.846,151.678 223.242 M177.839 221.582 C 176.010 222.865,174.012 228.125,175.352 228.125 C 175.546 228.125,175.885 228.641,176.105 229.272 C 177.051 231.987,181.667 232.550,183.865 230.220 C 185.277 228.723,185.601 228.761,186.481 230.534 C 187.756 233.101,189.883 231.632,189.593 228.385 C 189.322 225.359,189.876 223.723,191.114 223.899 C 191.940 224.016,191.999 224.232,192.106 227.536 C 192.232 231.387,192.442 231.858,193.877 231.497 C 194.793 231.268,194.848 231.089,194.979 227.952 C 195.221 222.167,197.156 222.258,197.349 228.063 C 197.476 231.904,197.795 232.191,200.899 231.261 C 202.166 230.881,202.645 230.913,203.781 231.452 C 204.906 231.986,205.341 232.017,206.276 231.630 C 206.941 231.354,207.989 231.269,208.812 231.424 C 210.929 231.821,211.352 231.255,211.085 228.379 C 210.580 222.921,208.906 220.499,205.844 220.793 C 203.850 220.984,201.195 222.669,201.140 223.777 C 201.122 224.127,200.864 223.856,200.565 223.174 C 199.574 220.912,196.820 219.925,195.310 221.291 C 194.747 221.801,194.509 221.807,193.521 221.336 C 192.820 221.001,191.257 220.812,189.453 220.845 L 186.523 220.898 186.162 222.363 C 185.766 223.966,184.966 224.294,184.562 223.020 C 183.883 220.880,180.016 220.053,177.839 221.582 M266.037 221.445 C 264.519 224.280,265.490 231.445,267.392 231.445 L 268.555 231.445 268.657 228.516 C 268.776 225.107,269.293 223.828,270.551 223.828 C 271.785 223.828,271.946 224.248,272.031 227.670 C 272.115 231.088,272.335 231.641,273.614 231.641 C 275.438 231.641,275.472 223.795,273.657 221.900 C 272.264 220.446,266.748 220.116,266.037 221.445 M292.090 222.098 L 290.625 223.487 290.625 226.802 L 290.625 230.116 292.285 230.870 C 295.502 232.330,298.582 231.623,299.752 229.157 C 302.441 223.491,296.447 217.969,292.090 222.098 M161.719 225.308 C 161.913 228.924,162.228 229.665,163.574 229.682 C 164.990 229.699,165.625 228.190,165.625 224.805 C 165.625 221.523,165.636 221.484,166.602 221.484 L 167.578 221.484 167.578 226.172 C 167.578 230.599,167.535 230.859,166.797 230.859 C 166.347 230.859,166.016 230.599,166.016 230.245 C 166.016 229.736,165.840 229.769,164.986 230.440 C 162.022 232.772,160.015 230.784,159.826 225.328 L 159.690 221.420 160.607 221.550 C 161.477 221.673,161.533 221.865,161.719 225.308 M183.060 222.177 C 186.128 224.662,185.045 230.405,181.378 231.093 C 176.932 231.927,174.224 225.679,177.690 222.582 C 179.154 221.274,181.707 221.081,183.060 222.177 M188.672 222.070 C 188.672 222.393,188.826 222.656,189.015 222.656 C 189.203 222.656,189.576 222.393,189.844 222.070 C 190.537 221.235,192.575 221.345,193.561 222.272 L 194.399 223.059 195.112 222.272 C 196.527 220.707,199.967 221.730,200.017 223.730 C 200.211 231.384,200.262 230.860,199.316 230.860 C 198.478 230.859,198.438 230.716,198.438 227.709 C 198.438 224.118,198.036 223.047,196.688 223.047 C 195.142 223.047,194.531 224.398,194.531 227.821 C 194.531 230.801,194.513 230.859,193.555 230.859 C 192.587 230.859,192.578 230.828,192.578 227.422 C 192.578 223.968,192.260 223.047,191.066 223.047 C 189.583 223.047,189.063 224.231,189.063 227.600 C 189.063 230.816,189.050 230.859,188.086 230.859 L 187.109 230.859 187.109 226.172 C 187.109 221.745,187.153 221.484,187.891 221.484 C 188.325 221.484,188.672 221.745,188.672 222.070 M208.212 221.880 C 209.129 222.371,209.761 224.554,209.763 227.246 C 209.765 228.374,209.941 229.297,210.156 229.297 C 210.371 229.297,210.547 229.648,210.547 230.078 C 210.547 231.028,208.698 231.195,208.346 230.277 C 208.157 229.785,207.968 229.815,207.133 230.472 C 205.867 231.469,204.667 231.459,203.373 230.440 C 201.173 228.710,202.615 225.997,205.979 225.536 C 207.328 225.351,207.813 225.113,207.813 224.634 C 207.813 223.046,205.531 222.463,204.587 223.811 C 203.793 224.944,202.178 224.478,202.808 223.297 C 203.727 221.571,206.350 220.883,208.212 221.880 M220.703 226.172 C 220.703 230.599,220.660 230.859,219.922 230.859 C 219.184 230.859,219.141 230.599,219.141 226.172 C 219.141 221.745,219.184 221.484,219.922 221.484 C 220.660 221.484,220.703 221.745,220.703 226.172 M230.078 222.232 C 230.078 222.643,229.024 224.401,227.736 226.138 L 225.394 229.297 227.736 229.297 C 229.818 229.297,230.078 229.384,230.078 230.078 C 230.078 230.798,229.818 230.859,226.758 230.859 C 222.592 230.859,222.484 230.438,225.586 226.317 C 228.212 222.828,228.225 223.047,225.391 223.047 C 223.307 223.047,223.047 222.960,223.047 222.266 C 223.047 221.542,223.307 221.484,226.563 221.484 C 229.765 221.484,230.078 221.551,230.078 222.232 M238.104 222.443 C 238.952 223.292,239.063 223.741,239.063 226.349 C 239.063 228.054,239.227 229.297,239.453 229.297 C 239.668 229.297,239.844 229.648,239.844 230.078 C 239.844 231.005,238.614 231.146,237.912 230.300 C 237.514 229.820,237.340 229.848,236.693 230.495 C 235.158 232.030,232.345 231.069,231.815 228.828 C 231.459 227.323,232.958 225.925,235.303 225.573 C 236.844 225.342,237.109 225.171,237.109 224.412 C 237.109 222.919,235.242 222.569,234.059 223.838 C 233.609 224.321,233.069 224.533,232.676 224.383 C 231.014 223.745,233.253 221.484,235.547 221.484 C 236.723 221.484,237.398 221.738,238.104 222.443 M248.260 222.443 C 249.423 223.606,249.460 224.062,248.438 224.609 C 247.818 224.941,247.656 224.906,247.656 224.442 C 247.656 223.002,244.884 222.606,243.967 223.915 C 241.841 226.950,244.623 231.194,247.109 228.708 C 248.338 227.479,249.937 227.955,249.201 229.331 C 248.084 231.418,244.325 231.743,242.595 229.901 C 238.750 225.808,244.307 218.491,248.260 222.443 M253.516 226.172 L 253.516 230.859 252.539 230.859 L 251.563 230.859 251.563 226.172 L 251.563 221.484 252.539 221.484 L 253.516 221.484 253.516 226.172 M262.694 222.363 C 265.047 224.393,264.662 229.344,262.045 230.697 C 258.022 232.778,254.151 228.520,256.013 224.062 C 257.107 221.444,260.599 220.556,262.694 222.363 M267.969 222.070 C 267.969 222.393,268.123 222.656,268.312 222.656 C 268.500 222.656,268.873 222.393,269.141 222.070 C 269.876 221.184,272.250 221.334,273.315 222.334 C 274.583 223.525,274.722 230.859,273.476 230.859 C 272.812 230.859,272.720 230.489,272.597 227.329 C 272.457 223.687,272.168 223.067,270.605 223.053 C 269.023 223.039,268.359 224.422,268.359 227.734 C 268.359 230.807,268.343 230.859,267.383 230.859 L 266.406 230.859 266.406 226.172 C 266.406 221.745,266.450 221.484,267.188 221.484 C 267.622 221.484,267.969 221.745,267.969 222.070 M297.611 222.121 C 298.588 222.806,299.609 224.869,299.609 226.159 C 299.609 226.895,299.366 226.953,296.289 226.953 C 292.676 226.953,292.380 227.181,293.952 228.753 C 295.055 229.856,296.252 229.752,297.275 228.464 C 297.805 227.796,297.954 227.776,298.642 228.279 C 299.404 228.836,299.402 228.856,298.486 229.831 C 296.005 232.472,292.003 231.117,291.273 227.389 C 290.452 223.197,294.429 219.893,297.611 222.121 M231.136 226.939 C 230.789 227.856,230.449 228.125,229.634 228.125 C 229.054 228.125,228.301 228.232,227.962 228.362 C 226.876 228.779,227.274 227.535,228.694 226.073 C 229.437 225.308,230.173 224.182,230.330 223.572 C 230.615 222.465,230.618 222.468,231.100 224.107 C 231.469 225.364,231.477 226.035,231.136 226.939 M178.906 223.828 C 178.001 224.733,177.827 227.585,178.613 228.615 C 180.270 230.784,182.813 229.342,182.813 226.232 C 182.813 223.311,180.714 222.020,178.906 223.828 M258.447 223.549 C 257.459 224.272,257.162 227.084,257.947 228.282 C 259.303 230.353,261.849 229.714,262.324 227.185 C 262.903 224.096,260.623 221.958,258.447 223.549 M283.750 223.346 C 282.204 224.378,282.000 227.348,283.381 228.729 C 285.281 230.629,287.109 229.489,287.109 226.406 C 287.109 223.683,285.474 222.194,283.750 223.346 M293.577 223.915 C 292.638 225.255,292.798 225.391,295.313 225.391 C 296.602 225.391,297.656 225.254,297.656 225.087 C 297.656 224.191,296.342 223.047,295.313 223.047 C 294.590 223.047,293.966 223.359,293.577 223.915 M153.019 224.097 C 153.096 224.326,152.887 224.617,152.556 224.744 C 152.133 224.906,151.953 224.736,151.953 224.174 C 151.953 223.370,152.758 223.313,153.019 224.097 M181.641 224.219 C 183.594 226.172,181.711 229.419,179.475 227.954 C 178.672 227.428,178.626 227.223,178.966 225.709 C 179.496 223.352,180.317 222.895,181.641 224.219 M254.193 227.822 C 254.110 228.740,254.042 228.086,254.040 226.367 C 254.039 224.648,254.106 223.897,254.190 224.697 C 254.274 225.497,254.275 226.903,254.193 227.822 M261.145 225.902 C 260.923 228.835,260.151 229.627,258.817 228.292 C 257.682 227.158,258.171 223.955,259.512 223.734 C 260.831 223.518,261.281 224.114,261.145 225.902 M217.485 225.785 C 217.599 227.765,217.156 228.737,216.289 228.404 C 215.483 228.095,215.015 225.149,215.650 224.384 C 216.566 223.280,217.375 223.897,217.485 225.785 M226.345 224.182 C 226.593 224.584,223.293 228.125,222.671 228.125 C 222.153 228.125,222.141 227.076,222.656 226.758 C 222.871 226.625,223.047 226.029,223.047 225.433 C 223.047 223.918,225.586 222.955,226.345 224.182 M236.112 224.185 C 236.376 224.613,235.550 224.958,234.866 224.706 C 234.598 224.608,234.477 224.370,234.596 224.178 C 234.877 223.723,235.829 223.728,236.112 224.185 M247.037 224.809 C 247.532 225.564,247.897 225.736,248.623 225.554 C 249.882 225.237,250.579 225.669,249.978 226.394 C 249.645 226.794,249.331 226.832,248.779 226.536 C 247.836 226.031,247.490 226.249,246.874 227.736 C 246.478 228.692,246.219 228.876,245.554 228.673 C 243.783 228.131,243.492 227.075,244.354 224.316 C 244.625 223.450,246.355 223.768,247.037 224.809 M286.252 225.669 C 286.409 227.836,285.835 228.906,284.673 228.612 C 282.370 228.030,282.754 223.633,285.085 223.902 C 286.014 224.010,286.146 224.210,286.252 225.669 M296.654 224.177 C 296.912 224.594,295.050 225.125,294.507 224.790 C 294.298 224.661,294.229 224.392,294.353 224.192 C 294.639 223.728,296.369 223.717,296.654 224.177 M202.734 225.781 C 202.734 225.996,202.471 226.172,202.148 226.172 C 201.826 226.172,201.563 225.996,201.563 225.781 C 201.563 225.566,201.826 225.391,202.148 225.391 C 202.471 225.391,202.734 225.566,202.734 225.781 M206.836 226.754 C 206.621 226.826,205.981 226.987,205.414 227.111 C 203.481 227.535,203.711 229.688,205.690 229.688 C 206.669 229.688,207.813 228.378,207.813 227.257 C 207.813 226.580,207.635 226.488,206.836 226.754 M235.708 226.953 C 234.038 227.321,233.594 227.657,233.594 228.551 C 233.594 230.291,236.414 229.952,237.047 228.136 C 237.524 226.768,237.330 226.596,235.708 226.953 M206.250 228.929 C 206.250 229.131,205.986 229.297,205.664 229.297 C 205.060 229.297,204.888 228.836,205.328 228.396 C 205.640 228.084,206.250 228.437,206.250 228.929 M316.484 237.188 C 316.169 237.503,316.016 239.281,316.016 242.624 C 316.016 245.357,315.909 247.870,315.779 248.210 C 315.288 249.489,314.943 248.734,314.680 245.801 C 314.263 241.163,312.516 239.816,308.647 241.149 C 307.624 241.501,306.891 241.554,306.449 241.307 C 304.020 239.948,298.438 240.837,298.438 242.583 C 298.438 242.985,298.262 243.422,298.047 243.555 C 297.832 243.687,297.656 243.522,297.656 243.187 C 297.656 240.261,292.280 240.007,289.276 242.791 C 288.729 243.298,288.276 243.501,288.269 243.243 C 288.202 240.708,281.934 239.950,281.007 242.365 C 280.655 243.283,279.307 243.087,278.446 241.992 C 277.446 240.721,273.131 240.541,271.950 241.721 C 271.270 242.402,271.223 242.398,270.639 241.624 C 270.038 240.827,264.832 240.506,264.117 241.222 C 263.856 241.484,264.026 250.856,264.297 251.139 C 264.383 251.229,264.453 249.076,264.453 246.354 C 264.453 241.667,264.494 241.406,265.234 241.406 C 265.755 241.406,266.016 241.667,266.016 242.188 C 266.016 242.617,266.104 242.969,266.211 242.969 C 266.318 242.969,266.758 242.617,267.188 242.188 C 268.348 241.027,269.922 241.140,269.922 242.383 C 269.922 243.164,269.727 243.359,268.945 243.359 C 267.097 243.359,266.406 244.585,266.406 247.864 C 266.406 250.550,266.330 250.837,265.527 251.160 L 264.648 251.513 265.537 251.538 C 266.704 251.570,267.188 250.267,267.188 247.087 C 267.188 243.089,269.467 242.685,270.202 246.553 C 271.044 250.988,275.076 253.092,278.007 250.626 C 279.306 249.532,279.933 249.572,281.603 250.853 C 283.002 251.927,283.020 251.439,281.632 250.052 C 280.434 248.854,280.368 248.047,281.468 248.047 C 281.778 248.047,282.383 248.398,282.813 248.828 C 283.734 249.750,285.254 249.847,285.933 249.028 C 286.693 248.113,286.145 247.411,284.311 246.948 C 281.894 246.338,281.120 245.656,281.120 244.135 C 281.120 241.461,284.924 240.357,286.996 242.429 C 288.323 243.756,287.378 244.590,285.754 243.526 C 285.124 243.114,284.410 242.973,283.766 243.135 C 282.153 243.540,282.726 244.635,284.915 245.329 C 289.221 246.694,289.053 250.479,284.654 251.196 L 283.008 251.465 284.498 251.514 C 286.305 251.573,287.321 251.076,287.986 249.807 L 288.486 248.852 289.252 249.991 C 290.217 251.427,291.196 251.669,294.660 251.328 C 296.745 251.122,297.217 250.976,296.567 250.735 C 296.092 250.560,295.703 250.222,295.703 249.984 C 295.703 249.747,295.240 249.917,294.674 250.362 C 292.618 251.979,289.844 250.890,289.844 248.465 C 289.844 246.711,291.951 245.323,294.629 245.315 C 295.416 245.312,295.550 244.144,294.844 243.438 C 294.130 242.723,292.686 242.878,292.087 243.733 C 291.279 244.886,289.742 244.400,290.303 243.168 C 292.169 239.074,296.888 241.345,297.185 246.480 C 297.284 248.201,297.530 249.609,297.731 249.609 C 297.932 249.609,298.041 250.005,297.974 250.488 C 297.867 251.254,298.048 251.383,299.377 251.492 C 302.422 251.741,302.823 251.431,302.525 249.050 C 302.066 245.370,303.099 243.317,305.093 243.950 C 306.374 244.357,306.770 245.556,306.275 247.524 C 305.887 249.062,305.928 249.390,306.627 250.372 L 307.417 251.481 313.051 251.424 C 316.150 251.393,318.786 251.266,318.910 251.142 C 319.489 250.563,319.410 238.087,318.824 237.402 C 318.144 236.609,317.154 236.518,316.484 237.188 M148.125 237.578 C 147.289 238.414,147.483 250.879,148.340 251.398 C 149.932 252.363,150.977 251.499,150.977 249.219 C 150.977 246.918,151.334 246.614,154.139 246.523 C 154.811 246.502,155.661 246.138,156.055 245.703 C 157.580 244.017,158.203 244.876,158.203 248.665 C 158.203 250.076,158.374 251.172,158.594 251.172 C 158.833 251.172,158.984 249.284,158.984 246.289 C 158.984 242.082,159.070 241.406,159.607 241.406 C 159.949 241.406,160.321 241.755,160.432 242.181 C 160.634 242.954,160.637 242.954,161.620 242.181 C 163.022 241.079,164.063 241.165,164.063 242.383 C 164.063 243.147,163.863 243.359,163.146 243.359 C 161.518 243.359,160.819 244.628,160.721 247.758 C 160.610 251.319,160.668 251.079,159.863 251.313 C 159.468 251.428,159.592 251.481,160.156 251.439 C 161.096 251.370,161.141 251.243,161.345 248.101 C 161.567 244.685,162.083 243.750,163.747 243.750 C 164.496 243.750,164.554 243.936,164.484 246.094 C 164.335 250.701,170.499 253.481,173.407 250.117 C 174.521 248.829,175.106 248.888,176.909 250.471 C 178.877 252.199,181.955 251.942,183.832 249.894 L 185.113 248.496 185.886 249.805 C 187.100 251.863,191.523 252.204,193.184 250.368 C 194.089 249.369,194.451 249.409,195.589 250.637 C 196.927 252.081,201.020 251.838,202.714 250.215 L 203.801 249.174 205.041 250.414 C 207.245 252.618,211.848 251.697,212.973 248.828 L 213.355 247.852 213.807 249.209 C 214.518 251.350,219.551 252.480,221.169 250.862 C 221.840 250.192,222.245 247.566,221.805 246.744 C 221.579 246.322,221.496 245.236,221.620 244.332 C 222.239 239.816,214.493 239.463,213.689 243.970 L 213.415 245.508 212.942 243.847 C 212.014 240.584,207.549 239.606,204.973 242.101 L 203.651 243.382 202.196 242.225 C 198.962 239.656,194.922 240.584,194.922 243.897 C 194.922 245.395,194.257 245.471,193.982 244.004 C 193.356 240.667,188.592 239.554,186.202 242.188 L 184.961 243.555 183.629 242.305 C 181.578 240.381,177.871 240.401,176.456 242.344 C 175.590 243.533,174.473 243.655,173.753 242.640 C 172.607 241.025,168.380 240.254,166.991 241.407 C 166.529 241.791,166.154 241.772,165.139 241.314 C 163.966 240.784,159.189 240.681,158.695 241.174 C 158.594 241.276,157.951 240.622,157.266 239.722 C 155.508 237.413,149.662 236.042,148.125 237.578 M227.126 237.612 C 227.020 237.888,226.982 241.096,227.041 244.741 L 227.148 251.367 228.711 251.433 C 230.050 251.490,230.109 251.462,229.124 251.238 C 228.491 251.094,228.008 250.845,228.049 250.684 C 228.091 250.522,228.125 247.572,228.125 244.126 L 228.125 237.862 231.934 237.974 C 235.445 238.077,235.742 238.147,235.742 238.867 C 235.742 239.566,235.444 239.661,232.910 239.763 L 230.078 239.878 230.078 241.619 L 230.078 243.359 232.422 243.359 C 234.683 243.359,234.766 243.395,234.766 244.371 C 234.766 245.361,234.717 245.379,232.421 245.250 L 230.077 245.117 230.077 247.168 L 230.078 249.219 233.035 249.219 C 236.437 249.219,237.433 250.694,234.375 251.205 C 233.623 251.330,234.539 251.411,236.410 251.384 C 240.533 251.324,240.335 251.508,240.494 247.579 C 240.634 244.106,240.893 243.535,242.148 243.933 C 242.901 244.172,242.969 244.480,242.969 247.695 C 242.969 250.969,243.026 251.218,243.848 251.524 C 245.800 252.251,246.289 251.568,246.289 248.115 C 246.289 242.434,248.411 241.966,248.559 247.614 C 248.647 250.991,249.003 251.669,250.586 251.467 C 251.309 251.375,251.375 251.031,251.477 246.817 C 251.615 241.076,251.584 241.034,247.042 240.967 C 245.232 240.940,242.476 240.885,240.918 240.845 C 237.118 240.747,237.111 240.756,237.103 245.458 C 237.099 248.157,236.977 249.228,236.719 248.828 C 236.510 248.506,236.337 247.179,236.334 245.879 C 236.327 242.946,235.968 242.578,233.113 242.578 C 229.005 242.578,229.510 240.582,233.642 240.487 C 236.512 240.420,237.745 239.240,236.445 237.804 C 235.644 236.919,227.457 236.750,227.126 237.612 M330.482 237.865 C 330.260 238.281,330.061 239.906,330.039 241.478 C 329.973 246.357,329.452 247.154,328.718 243.498 C 328.131 240.573,323.799 239.700,321.312 242.005 C 320.442 242.812,320.380 243.046,320.756 244.124 C 321.167 245.303,321.123 245.842,320.483 247.461 C 320.266 248.009,320.517 247.880,321.322 247.031 C 322.155 246.152,322.978 245.744,324.321 245.542 C 325.712 245.334,326.172 245.096,326.172 244.585 C 326.172 242.959,324.335 242.462,323.056 243.741 C 322.631 244.166,322.016 244.411,321.689 244.285 C 319.988 243.633,322.301 241.406,324.680 241.406 C 327.286 241.406,328.125 242.639,328.125 246.467 C 328.125 248.301,328.288 249.609,328.516 249.609 C 328.730 249.609,328.906 249.940,328.906 250.345 C 328.906 250.962,329.315 251.125,331.434 251.352 C 334.086 251.636,334.766 251.479,334.766 250.586 C 334.766 249.584,335.491 249.589,336.500 250.598 C 337.711 251.809,341.244 251.908,342.710 250.771 C 344.101 249.694,344.669 249.678,345.880 250.685 C 349.635 253.810,355.935 248.758,352.341 245.505 C 351.602 244.837,351.595 244.752,352.214 244.068 C 352.834 243.384,352.826 243.277,352.080 242.279 C 350.606 240.305,346.358 240.234,345.324 242.166 C 344.860 243.033,343.730 242.854,342.738 241.758 C 341.584 240.483,337.667 240.738,335.956 242.200 C 334.723 243.255,334.594 243.569,334.446 245.890 C 334.171 250.210,333.594 248.268,333.594 243.024 C 333.594 239.674,333.441 237.894,333.125 237.578 C 332.407 236.860,330.934 237.020,330.482 237.865 M154.641 238.324 C 158.995 239.842,157.328 246.094,152.569 246.094 L 150.391 246.094 150.391 248.633 C 150.391 251.081,150.356 251.172,149.414 251.172 L 148.438 251.172 148.438 244.531 L 148.438 237.891 150.918 237.891 C 152.283 237.891,153.958 238.085,154.641 238.324 M318.673 238.915 C 318.823 239.969,317.651 240.475,316.869 239.693 C 316.074 238.897,316.581 237.806,317.674 237.961 C 318.222 238.039,318.599 238.399,318.673 238.915 M332.813 243.750 C 332.813 248.698,332.904 249.609,333.398 249.609 C 333.724 249.609,333.984 249.957,333.984 250.391 C 333.984 251.471,331.839 251.491,331.264 250.416 C 331.036 249.991,330.859 247.085,330.859 243.776 L 330.859 237.891 331.836 237.891 L 332.813 237.891 332.813 243.750 M150.391 242.188 L 150.391 244.531 151.866 244.531 C 153.829 244.531,155.078 243.622,155.078 242.193 C 155.078 240.581,154.150 239.844,152.121 239.844 L 150.391 239.844 150.391 242.188 M154.223 242.076 C 154.326 243.145,154.195 243.370,153.345 243.583 C 151.945 243.935,151.172 243.540,151.172 242.473 C 151.172 240.257,154.011 239.887,154.223 242.076 M253.470 241.113 C 253.222 241.647,253.333 253.881,253.591 254.395 C 254.319 255.847,256.143 254.969,255.923 253.272 C 255.865 252.816,256.111 252.148,256.471 251.787 C 257.084 251.174,257.080 251.098,256.395 250.595 C 255.709 250.090,255.657 250.180,255.543 252.071 C 255.434 253.888,255.034 254.664,254.199 254.682 C 254.038 254.685,253.906 251.699,253.906 248.047 C 253.906 242.344,253.991 241.406,254.504 241.406 C 254.833 241.406,255.203 241.667,255.325 241.987 C 255.522 242.500,255.644 242.500,256.377 241.987 C 259.039 240.122,262.109 242.433,262.109 246.301 C 262.109 249.202,261.016 250.544,258.008 251.333 C 257.578 251.446,257.889 251.466,258.699 251.378 C 262.766 250.937,264.410 245.298,261.406 242.090 C 260.531 241.154,253.834 240.330,253.470 241.113 M172.728 242.477 C 174.716 244.464,174.380 249.046,172.148 250.407 C 167.925 252.982,163.605 248.369,165.919 243.755 C 167.127 241.347,170.891 240.640,172.728 242.477 M182.635 242.365 C 183.798 243.528,183.835 243.984,182.813 244.531 C 182.340 244.784,182.031 244.801,182.031 244.573 C 182.031 243.932,180.842 242.969,180.050 242.969 C 178.707 242.969,177.734 244.363,177.734 246.289 C 177.734 249.560,181.112 250.935,182.094 248.064 C 182.258 247.585,183.984 247.995,183.984 248.513 C 183.984 249.575,181.660 251.172,180.114 251.172 C 177.359 251.172,175.977 249.540,175.977 246.289 C 175.977 242.000,179.936 239.666,182.635 242.365 M191.751 242.043 C 192.729 242.728,193.750 244.791,193.750 246.081 C 193.750 246.816,193.507 246.875,190.466 246.875 C 187.358 246.875,187.194 246.917,187.390 247.668 C 187.855 249.447,189.791 250.053,191.036 248.808 C 191.807 248.036,193.359 248.044,193.359 248.820 C 193.359 251.312,187.133 251.752,186.135 249.331 C 184.007 244.166,187.784 239.265,191.751 242.043 M200.924 242.216 C 201.490 242.661,201.953 243.194,201.953 243.400 C 201.953 244.107,200.801 244.216,200.156 243.571 C 199.270 242.685,197.461 242.924,197.461 243.927 C 197.461 244.484,197.966 244.870,199.337 245.361 C 203.768 246.946,203.338 251.172,198.745 251.172 C 197.119 251.172,194.598 249.277,195.115 248.442 C 195.499 247.819,196.301 247.978,197.070 248.828 C 197.895 249.740,199.151 249.835,200.204 249.066 C 201.238 248.309,200.484 247.480,198.252 246.918 C 195.417 246.204,194.512 244.124,196.271 242.365 C 197.480 241.157,199.495 241.092,200.924 242.216 M210.820 242.171 C 213.633 243.886,213.318 249.359,210.328 250.721 C 206.155 252.622,202.418 248.086,204.590 243.755 C 205.766 241.411,208.453 240.728,210.820 242.171 M220.285 242.354 C 221.600 243.753,220.613 244.887,219.259 243.533 C 218.405 242.679,216.602 242.946,216.602 243.927 C 216.602 244.484,217.106 244.870,218.477 245.361 C 222.908 246.946,222.478 251.172,217.886 251.172 C 216.260 251.172,213.739 249.277,214.255 248.442 C 214.640 247.819,215.441 247.978,216.211 248.828 C 217.063 249.770,218.464 249.839,219.322 248.982 C 220.180 248.124,219.564 247.465,217.393 246.918 C 214.557 246.204,213.653 244.124,215.412 242.365 C 216.731 241.046,219.051 241.040,220.285 242.354 M239.844 242.014 C 239.844 242.565,239.926 242.565,240.712 242.014 C 241.880 241.196,243.590 241.247,244.468 242.125 C 245.166 242.822,245.213 242.822,246.074 242.125 C 247.407 241.045,249.381 241.188,250.362 242.435 C 251.647 244.068,251.589 251.285,250.293 251.101 C 249.466 250.984,249.407 250.768,249.300 247.481 C 249.157 243.081,248.291 241.920,246.417 243.615 C 245.828 244.149,245.703 244.866,245.703 247.717 C 245.703 251.142,245.695 251.172,244.727 251.172 C 243.759 251.172,243.750 251.141,243.750 247.731 C 243.750 243.778,243.283 242.707,241.729 243.097 C 240.368 243.439,239.844 244.882,239.844 248.288 C 239.844 251.112,239.809 251.221,238.965 251.101 C 238.101 250.979,237.382 243.685,238.060 241.920 C 238.339 241.192,239.844 241.272,239.844 242.014 M277.298 242.043 C 278.271 242.725,279.297 244.789,279.297 246.066 C 279.297 246.774,278.995 246.855,275.988 246.957 L 272.680 247.070 273.165 248.040 C 273.977 249.667,275.679 250.002,276.758 248.748 C 277.561 247.814,277.728 247.764,278.378 248.265 C 279.067 248.797,279.041 248.879,277.826 249.998 C 273.986 253.532,269.131 248.288,271.680 243.359 C 272.710 241.367,275.425 240.731,277.298 242.043 M301.563 242.199 C 301.563 242.987,301.569 242.987,302.686 242.161 C 304.018 241.177,305.273 241.287,305.273 242.388 C 305.273 242.937,304.970 243.199,304.240 243.284 C 302.376 243.500,301.777 244.638,301.767 247.980 C 301.758 250.787,301.702 250.984,300.879 251.101 C 300.007 251.225,300.000 251.185,300.000 246.316 C 300.000 241.667,300.041 241.406,300.781 241.406 C 301.306 241.406,301.563 241.667,301.563 242.199 M312.287 241.649 C 313.383 242.069,314.063 243.979,314.063 246.637 C 314.063 248.032,314.238 249.281,314.453 249.414 C 314.668 249.547,314.844 249.909,314.844 250.218 C 314.844 250.901,313.240 250.974,312.587 250.322 C 312.235 249.969,311.959 250.015,311.404 250.517 C 309.681 252.077,306.641 250.768,306.641 248.466 C 306.641 246.982,308.037 245.875,310.347 245.529 C 311.659 245.332,312.109 245.091,312.109 244.585 C 312.109 242.954,309.836 242.374,308.867 243.758 C 308.431 244.379,308.117 244.474,307.390 244.205 L 306.467 243.864 307.696 242.635 C 308.922 241.409,310.678 241.032,312.287 241.649 M318.555 246.289 C 318.555 250.853,318.531 250.980,317.676 251.101 C 316.804 251.225,316.797 251.186,316.797 246.289 C 316.797 241.392,316.804 241.353,317.676 241.477 C 318.531 241.598,318.555 241.725,318.555 246.289 M341.926 242.205 C 342.826 242.913,343.742 245.014,343.748 246.387 C 343.749 246.739,342.827 246.875,340.430 246.875 C 336.816 246.875,336.319 247.257,337.891 248.828 C 338.891 249.829,340.022 249.822,341.036 248.808 C 341.807 248.036,343.359 248.044,343.359 248.820 C 343.359 250.788,338.474 251.784,336.700 250.178 C 332.559 246.430,337.573 238.781,341.926 242.205 M351.145 242.354 C 352.459 243.753,351.472 244.887,350.118 243.533 C 349.264 242.679,347.461 242.946,347.461 243.927 C 347.461 244.484,347.966 244.870,349.337 245.361 C 353.744 246.938,353.340 251.172,348.782 251.172 C 347.109 251.172,344.562 249.335,345.078 248.501 C 345.497 247.823,346.276 247.951,347.070 248.828 C 347.978 249.832,349.841 249.855,350.369 248.869 C 350.869 247.935,350.373 247.494,348.159 246.902 C 345.364 246.155,344.422 243.726,346.342 242.216 C 347.794 241.074,350.002 241.137,351.145 242.354 M168.516 243.268 C 166.332 244.726,167.264 249.609,169.727 249.609 C 170.850 249.609,172.266 247.797,172.266 246.359 C 172.266 244.023,170.082 242.222,168.516 243.268 M188.215 243.457 C 186.628 244.736,187.017 245.313,189.465 245.313 C 191.954 245.313,192.265 244.999,191.016 243.750 C 190.122 242.857,189.094 242.749,188.215 243.457 M207.187 243.268 C 205.248 244.563,205.601 248.943,207.687 249.466 C 208.789 249.743,210.383 248.789,210.750 247.633 C 211.580 245.018,209.106 241.987,207.187 243.268 M256.241 244.043 C 254.792 245.882,255.885 249.609,257.873 249.609 C 260.063 249.609,261.169 244.894,259.288 243.577 C 258.032 242.697,257.202 242.824,256.241 244.043 M273.984 243.268 C 272.194 244.463,272.610 245.313,274.986 245.313 C 277.501 245.313,277.814 245.002,276.563 243.750 C 275.762 242.949,274.746 242.759,273.984 243.268 M337.891 243.750 C 336.639 245.002,336.952 245.313,339.467 245.313 C 341.788 245.313,341.817 245.299,341.362 244.434 C 340.481 242.761,339.143 242.497,337.891 243.750 M170.996 244.249 C 171.898 244.947,171.597 247.565,170.534 248.261 C 168.865 249.355,167.155 247.699,167.793 245.605 C 168.399 243.617,169.549 243.130,170.996 244.249 M180.769 244.238 C 182.017 245.775,180.981 248.991,179.374 248.571 C 178.517 248.347,178.044 244.742,178.776 244.010 C 179.203 243.584,180.344 243.714,180.769 244.238 M209.271 244.238 C 210.487 245.792,209.992 248.438,208.486 248.438 C 207.234 248.438,206.641 247.729,206.641 246.233 C 206.641 244.494,208.417 243.147,209.271 244.238 M258.906 244.219 C 260.485 245.798,258.809 249.336,256.839 248.580 C 255.431 248.040,256.295 243.750,257.813 243.750 C 258.156 243.750,258.648 243.961,258.906 244.219 M190.234 244.531 C 190.234 244.746,189.785 244.922,189.235 244.922 C 188.668 244.922,188.340 244.753,188.477 244.531 C 188.609 244.316,189.059 244.141,189.476 244.141 C 189.893 244.141,190.234 244.316,190.234 244.531 M275.391 244.531 C 275.864 244.837,275.808 244.911,275.098 244.916 C 274.614 244.919,274.219 244.746,274.219 244.531 C 274.219 244.042,274.633 244.042,275.391 244.531 M340.430 244.531 C 340.571 244.760,340.166 244.922,339.453 244.922 C 338.741 244.922,338.335 244.760,338.477 244.531 C 338.609 244.316,339.049 244.141,339.453 244.141 C 339.857 244.141,340.297 244.316,340.430 244.531 M233.980 246.675 C 234.854 247.728,234.153 248.438,232.239 248.438 C 230.532 248.438,230.469 248.395,230.469 247.266 C 230.469 245.922,233.002 245.496,233.980 246.675 M293.493 246.971 C 292.599 247.150,291.770 247.554,291.650 247.867 C 290.954 249.680,293.632 250.358,294.750 248.652 C 295.765 247.102,295.383 246.590,293.493 246.971 M310.290 246.972 C 308.574 247.316,307.893 248.180,308.635 249.073 C 309.686 250.339,312.333 249.023,312.043 247.379 C 311.930 246.736,311.714 246.686,310.290 246.972 M329.688 247.539 C 329.688 248.325,329.575 248.481,329.245 248.151 C 329.002 247.908,328.908 247.433,329.037 247.097 C 329.395 246.165,329.688 246.364,329.688 247.539 M323.274 247.389 C 322.272 248.122,322.629 249.387,323.880 249.533 C 325.050 249.669,326.172 248.736,326.172 247.628 C 326.172 246.723,324.387 246.576,323.274 247.389 M199.219 248.092 C 199.219 248.536,197.768 248.544,197.495 248.101 C 197.380 247.916,197.380 247.672,197.494 247.558 C 197.801 247.252,199.219 247.691,199.219 248.092 M275.942 247.502 C 276.866 247.856,276.281 248.438,275.000 248.438 C 273.873 248.438,273.239 247.985,273.709 247.515 C 274.024 247.200,275.139 247.193,275.942 247.502 M284.710 247.613 C 285.082 247.850,285.110 248.029,284.804 248.219 C 284.221 248.579,282.741 248.087,283.025 247.628 C 283.304 247.178,284.012 247.172,284.710 247.613 M340.188 247.620 C 340.613 247.888,340.551 248.018,339.899 248.225 C 339.015 248.505,338.281 248.237,338.281 247.633 C 338.281 247.173,339.469 247.164,340.188 247.620 M190.307 247.994 C 189.831 248.295,187.891 248.145,187.891 247.806 C 187.891 247.724,188.550 247.659,189.355 247.662 C 190.289 247.666,190.634 247.786,190.307 247.994 M320.703 249.995 C 320.703 251.112,321.359 251.325,325.094 251.422 C 328.874 251.521,329.011 251.476,327.403 250.674 C 326.467 250.207,326.176 250.203,325.571 250.645 C 324.440 251.472,322.732 251.283,321.662 250.213 C 320.798 249.349,320.703 249.327,320.703 249.995 M209.082 256.727 C 208.370 257.070,208.203 257.474,208.203 258.849 L 208.203 260.547 206.589 260.547 C 204.972 260.547,202.344 262.553,202.344 263.787 C 202.344 264.034,202.074 263.851,201.744 263.380 C 201.324 262.780,201.172 261.760,201.238 259.975 C 201.344 257.114,201.003 256.520,199.364 256.708 L 198.242 256.836 198.147 262.305 C 198.095 265.313,197.935 268.037,197.790 268.359 C 197.296 269.463,196.923 265.491,197.148 261.516 C 197.394 257.158,197.097 256.473,195.062 256.710 C 194.111 256.821,193.934 257.068,193.571 258.787 L 193.159 260.739 191.701 260.613 C 189.857 260.454,188.034 261.678,187.206 263.632 L 186.610 265.039 186.176 263.564 C 185.031 259.670,179.461 259.521,177.753 263.338 L 177.051 264.905 176.611 263.644 C 176.370 262.951,176.172 261.198,176.172 259.750 C 176.172 257.243,176.123 257.104,175.162 256.863 C 173.079 256.340,172.240 257.353,169.940 263.179 L 169.441 264.443 168.614 263.393 C 168.160 262.815,167.170 261.104,166.414 259.589 C 164.918 256.594,163.078 255.600,162.178 257.301 C 161.755 258.101,161.589 267.307,161.952 269.798 C 162.404 272.896,165.234 272.379,165.234 269.198 C 165.234 266.560,166.170 265.744,166.978 267.678 C 168.232 270.681,171.511 269.410,172.105 265.691 C 172.556 262.872,173.054 264.702,172.789 268.202 C 172.562 271.203,172.593 271.377,173.384 271.584 C 174.751 271.941,175.774 271.466,176.013 270.363 C 176.135 269.798,176.421 268.845,176.649 268.244 L 177.063 267.152 177.747 268.681 C 179.510 272.618,185.430 272.437,186.183 268.422 L 186.439 267.062 187.070 268.283 C 188.580 271.203,195.477 272.916,197.138 270.784 C 197.626 270.156,197.681 270.157,198.067 270.801 C 198.891 272.177,200.622 271.669,201.356 269.836 L 202.016 268.188 202.757 269.152 C 203.165 269.683,203.502 270.228,203.507 270.363 C 203.550 271.577,210.577 271.736,211.450 270.542 C 211.876 269.960,212.038 269.970,213.404 270.666 C 217.070 272.535,223.397 271.172,221.665 268.886 C 221.365 268.489,221.112 267.373,221.104 266.406 C 221.060 261.110,218.633 259.399,213.996 261.394 L 212.026 262.241 212.229 264.031 C 212.415 265.679,211.945 270.469,211.727 269.141 C 211.674 268.818,211.667 265.977,211.712 262.826 C 211.804 256.262,211.502 255.560,209.082 256.727 M261.598 257.452 C 261.481 257.898,261.435 259.611,261.494 261.260 C 261.554 262.909,261.629 265.863,261.661 267.826 C 261.721 271.556,262.383 272.522,264.135 271.440 C 264.787 271.037,265.275 257.391,264.653 256.940 C 263.765 256.295,261.815 256.622,261.598 257.452 M269.918 257.910 C 269.492 258.608,269.143 259.435,269.142 259.747 C 269.140 260.735,266.706 267.334,266.133 267.907 C 265.044 268.996,265.640 271.272,267.051 271.409 C 268.208 271.521,268.320 271.414,268.909 269.640 L 269.536 267.752 271.504 267.958 C 273.313 268.147,273.543 268.291,274.343 269.727 C 275.413 271.645,277.461 272.181,277.862 270.647 C 277.989 270.163,277.923 269.563,277.716 269.314 C 277.510 269.065,277.014 267.913,276.616 266.755 C 272.860 255.838,271.930 254.610,269.918 257.910 M166.990 262.201 L 168.942 266.521 171.007 262.167 C 172.953 258.063,173.138 257.813,174.231 257.813 L 175.391 257.813 175.391 264.258 L 175.391 270.703 174.414 270.703 L 173.438 270.703 173.431 265.918 L 173.424 261.133 171.711 264.844 C 169.285 270.099,168.722 270.111,166.297 264.961 L 164.495 261.133 164.474 265.918 L 164.453 270.703 163.477 270.703 L 162.500 270.703 162.500 264.323 C 162.500 257.275,162.452 257.491,163.963 257.718 C 164.912 257.861,165.269 258.389,166.990 262.201 M196.094 264.063 C 196.094 270.443,196.063 270.703,195.313 270.703 C 194.883 270.703,194.531 270.462,194.531 270.166 C 194.531 269.748,194.195 269.796,193.008 270.383 C 190.192 271.776,187.500 269.642,187.500 266.016 C 187.500 262.080,192.020 259.379,193.834 262.231 C 193.996 262.487,194.131 261.509,194.135 260.059 C 194.140 257.508,194.173 257.422,195.117 257.422 L 196.094 257.422 196.094 264.063 M200.386 258.003 C 201.036 258.785,200.603 259.766,199.609 259.766 C 199.166 259.766,198.702 259.500,198.577 259.175 C 198.352 258.590,199.040 257.422,199.609 257.422 C 199.772 257.422,200.121 257.683,200.386 258.003 M210.938 264.063 C 210.938 270.443,210.907 270.703,210.156 270.703 C 209.690 270.703,209.375 270.443,209.375 270.057 C 209.375 269.480,209.288 269.488,208.576 270.134 C 204.870 273.487,200.439 266.253,203.857 262.428 C 205.141 260.991,207.261 260.707,208.477 261.810 C 209.148 262.419,209.174 262.334,209.049 259.935 C 208.920 257.459,208.933 257.422,209.928 257.422 L 210.938 257.422 210.938 264.063 M264.142 264.257 L 264.026 270.703 263.068 270.703 L 262.109 270.703 262.109 264.258 L 262.109 257.813 263.184 257.812 L 264.258 257.811 264.142 264.257 M275.044 264.239 C 277.740 271.545,277.591 270.784,276.300 270.631 C 275.459 270.532,275.148 270.184,274.705 268.848 L 274.154 267.188 271.680 267.188 L 269.206 267.188 268.654 268.848 C 268.260 270.033,267.860 270.543,267.255 270.633 C 266.071 270.807,266.131 270.500,268.559 263.895 C 269.738 260.687,270.703 257.995,270.703 257.912 C 270.703 257.829,271.163 257.816,271.724 257.884 C 272.662 257.998,272.932 258.514,275.044 264.239 M150.863 260.427 C 150.370 260.525,149.335 261.238,148.561 262.012 L 147.154 263.418 148.035 264.131 C 148.519 264.523,149.379 264.868,149.946 264.897 L 150.977 264.950 150.000 265.127 C 149.463 265.223,148.628 265.670,148.145 266.118 C 145.388 268.675,149.833 273.059,153.108 271.013 C 153.723 270.630,153.996 270.663,154.582 271.194 C 156.215 272.671,157.976 270.740,156.731 268.839 C 156.348 268.255,156.001 266.667,155.875 264.925 C 155.609 261.230,154.014 259.799,150.863 260.427 M270.905 262.365 C 270.515 263.621,270.115 264.868,270.017 265.137 C 269.890 265.483,270.363 265.625,271.638 265.625 C 273.728 265.625,273.689 265.762,272.520 262.560 L 271.615 260.082 270.905 262.365 M228.600 261.309 C 226.192 262.820,225.796 268.174,227.945 270.166 C 229.787 271.872,232.487 271.953,234.139 270.352 C 235.550 268.984,236.129 269.018,238.018 270.574 C 240.428 272.560,244.991 271.188,245.501 268.325 C 246.248 264.128,245.780 262.405,243.609 261.354 C 241.290 260.232,237.109 260.675,237.109 262.044 C 237.109 262.975,235.343 262.843,234.552 261.852 C 233.422 260.434,230.429 260.161,228.600 261.309 M246.929 261.067 C 246.483 261.605,246.612 270.352,247.077 271.105 C 247.206 271.313,247.829 271.484,248.461 271.484 L 249.609 271.484 249.609 268.029 C 249.609 264.208,250.171 263.093,251.870 263.537 C 252.814 263.784,252.794 263.694,252.874 268.081 C 252.934 271.372,253.244 271.893,254.948 271.568 L 255.939 271.378 255.801 266.709 C 255.626 260.786,255.423 260.547,250.590 260.547 C 248.377 260.547,247.225 260.711,246.929 261.067 M154.590 262.326 C 155.333 263.171,155.469 263.773,155.469 266.233 C 155.469 267.911,155.634 269.141,155.859 269.141 C 156.074 269.141,156.250 269.492,156.250 269.922 C 156.250 270.866,155.015 270.983,154.289 270.107 C 153.848 269.576,153.714 269.584,153.050 270.185 C 151.945 271.185,149.674 271.063,148.778 269.957 C 147.159 267.957,148.131 266.149,151.195 265.459 C 153.052 265.040,153.320 264.861,153.320 264.033 C 153.320 262.856,150.900 262.386,150.306 263.447 C 149.939 264.102,148.438 264.308,148.438 263.704 C 148.438 261.128,152.696 260.174,154.590 262.326 M184.863 262.534 C 185.610 263.333,185.938 264.100,185.938 265.045 L 185.938 266.406 182.813 266.406 C 179.961 266.406,179.688 266.474,179.688 267.178 C 179.688 267.825,179.875 267.912,180.847 267.717 C 181.485 267.590,182.315 267.604,182.692 267.748 C 183.788 268.169,182.477 268.795,181.055 268.530 C 180.168 268.365,180.025 268.411,180.469 268.720 C 181.440 269.397,183.113 269.206,183.712 268.351 C 184.292 267.523,185.547 267.644,185.547 268.528 C 185.547 271.332,179.768 271.550,178.346 268.800 C 175.745 263.769,181.156 258.566,184.863 262.534 M218.309 261.369 C 219.990 261.955,220.313 262.730,220.313 266.185 C 220.313 268.552,220.429 269.141,220.898 269.141 C 221.224 269.141,221.484 269.488,221.484 269.922 C 221.484 270.873,220.451 270.952,219.228 270.095 C 218.750 269.761,218.359 269.651,218.359 269.852 C 218.359 270.610,216.218 271.151,215.021 270.696 C 211.807 269.474,212.900 265.748,216.595 265.332 C 218.629 265.102,218.960 264.794,218.364 263.680 C 217.854 262.728,215.719 262.582,215.376 263.477 C 215.136 264.102,213.853 264.280,213.516 263.736 C 212.609 262.268,216.036 260.577,218.309 261.369 M232.728 261.357 C 234.527 261.984,235.423 263.502,234.338 264.082 C 233.657 264.447,233.423 264.383,232.948 263.706 C 231.561 261.725,228.906 263.242,228.906 266.016 C 228.906 268.792,231.561 270.306,232.951 268.322 C 233.504 267.532,235.156 267.540,235.156 268.332 C 235.156 269.980,231.605 271.416,229.600 270.578 C 224.418 268.413,227.438 259.513,232.728 261.357 M243.444 261.862 C 244.627 262.601,245.422 264.777,245.206 266.687 C 244.526 272.720,236.569 272.102,236.569 266.016 C 236.569 262.047,240.214 259.845,243.444 261.862 M254.428 262.081 C 254.996 262.638,255.192 263.613,255.364 266.744 L 255.582 270.703 254.549 270.703 C 253.517 270.703,253.516 270.699,253.516 267.552 C 253.516 263.805,253.134 262.891,251.571 262.891 C 249.810 262.891,249.219 264.091,249.219 267.665 C 249.219 270.645,249.200 270.703,248.242 270.703 L 247.266 270.703 247.266 266.016 L 247.266 261.328 248.242 261.328 C 248.890 261.328,249.219 261.545,249.219 261.975 C 249.219 262.557,249.287 262.562,249.902 262.026 C 251.338 260.775,253.119 260.797,254.428 262.081 M200.391 266.016 C 200.391 270.443,200.347 270.703,199.609 270.703 C 198.872 270.703,198.828 270.443,198.828 266.016 C 198.828 261.589,198.872 261.328,199.609 261.328 C 200.347 261.328,200.391 261.589,200.391 266.016 M272.025 264.160 C 272.231 265.028,272.146 265.234,271.579 265.234 C 270.992 265.234,270.903 264.970,271.033 263.609 C 271.193 261.931,271.541 262.125,272.025 264.160 M180.282 263.524 C 179.572 264.234,179.634 265.451,180.376 265.391 C 180.642 265.369,181.563 265.325,182.422 265.293 C 183.644 265.247,183.984 265.081,183.984 264.531 C 183.984 262.935,181.537 262.269,180.282 263.524 M190.061 263.759 C 188.636 265.794,189.715 269.141,191.797 269.141 C 193.211 269.141,194.141 267.901,194.141 266.016 C 194.141 264.131,193.211 262.891,191.797 262.891 C 191.074 262.891,190.451 263.203,190.061 263.759 M204.841 264.298 C 203.774 266.852,204.732 269.141,206.870 269.141 C 208.455 269.141,208.984 268.332,208.984 265.907 C 208.984 262.751,205.975 261.583,204.841 264.298 M238.877 264.043 C 237.622 266.471,238.633 269.141,240.808 269.141 C 242.441 269.141,243.359 268.015,243.359 266.016 C 243.359 262.948,240.170 261.544,238.877 264.043 M152.485 263.867 C 152.361 264.189,152.122 264.453,151.953 264.453 C 151.784 264.453,151.545 264.189,151.421 263.867 C 151.269 263.471,151.441 263.281,151.953 263.281 C 152.465 263.281,152.637 263.471,152.485 263.867 M193.262 264.171 C 193.530 264.379,193.750 265.109,193.750 265.793 C 193.750 268.326,191.469 269.587,190.450 267.617 C 189.054 264.919,191.057 262.465,193.262 264.171 M232.841 265.086 C 233.627 266.358,234.375 266.537,234.375 265.454 C 234.375 265.171,234.639 264.721,234.961 264.453 C 235.465 264.034,235.547 264.187,235.547 265.553 C 235.547 267.125,235.536 267.137,234.273 266.932 C 233.303 266.774,232.822 266.920,232.259 267.542 C 231.265 268.641,230.301 268.572,229.750 267.364 C 228.265 264.105,230.993 262.094,232.841 265.086 M207.816 264.262 C 208.407 264.974,208.099 267.941,207.389 268.380 C 206.316 269.043,205.278 268.140,205.152 266.433 C 204.973 264.005,206.542 262.726,207.816 264.262 M242.226 264.576 C 242.959 266.185,242.171 268.142,240.734 268.284 C 239.396 268.416,238.814 267.509,239.028 265.625 C 239.262 263.561,241.438 262.848,242.226 264.576 M151.311 266.832 C 149.850 267.256,149.415 268.109,150.240 268.934 C 151.374 270.068,153.516 268.926,153.516 267.188 C 153.516 266.341,153.189 266.288,151.311 266.832 M216.797 266.692 C 214.700 267.078,214.190 268.469,215.866 269.233 C 216.954 269.728,218.750 268.319,218.750 266.970 C 218.750 266.399,218.549 266.370,216.797 266.692 M217.495 268.022 C 217.650 268.828,216.474 269.293,215.766 268.705 C 215.348 268.358,215.329 268.130,215.682 267.705 C 216.261 267.007,217.336 267.195,217.495 268.022 M152.246 268.238 C 151.870 268.336,151.255 268.336,150.879 268.238 C 150.503 268.140,150.811 268.059,151.563 268.059 C 152.314 268.059,152.622 268.140,152.246 268.238 " stroke="none" fill="#e1e0d9" fill-rule="evenodd"></path><path id="path2" d="M94.048 140.120 C 94.533 140.213,95.237 140.210,95.610 140.112 C 95.983 140.014,95.586 139.938,94.727 139.942 C 93.867 139.947,93.562 140.027,94.048 140.120 M129.418 162.695 C 129.420 163.984,129.493 164.465,129.580 163.763 C 129.667 163.060,129.665 162.006,129.576 161.419 C 129.487 160.832,129.416 161.406,129.418 162.695 M157.122 178.516 C 157.122 179.268,157.202 179.575,157.301 179.199 C 157.399 178.823,157.399 178.208,157.301 177.832 C 157.202 177.456,157.122 177.764,157.122 178.516 M204.013 185.156 C 204.013 186.123,204.089 186.519,204.182 186.035 C 204.275 185.552,204.275 184.761,204.182 184.277 C 204.089 183.794,204.013 184.189,204.013 185.156 M278.660 197.266 C 278.660 199.521,278.725 200.444,278.804 199.316 C 278.883 198.188,278.883 196.343,278.804 195.215 C 278.725 194.087,278.660 195.010,278.660 197.266 M287.180 220.238 C 287.130 221.693,286.975 222.229,286.658 222.033 C 286.368 221.853,286.314 221.927,286.507 222.239 C 287.075 223.159,287.549 222.008,287.399 220.074 L 287.250 218.164 287.180 220.238 M165.753 224.023 C 165.755 225.527,165.826 226.095,165.910 225.284 C 165.995 224.474,165.993 223.243,165.907 222.550 C 165.821 221.856,165.751 222.520,165.753 224.023 M170.446 225.977 C 170.448 227.695,170.517 228.350,170.599 227.431 C 170.682 226.512,170.680 225.106,170.596 224.306 C 170.513 223.506,170.445 224.258,170.446 225.977 M192.709 227.734 C 192.709 229.346,192.778 230.005,192.863 229.199 C 192.947 228.394,192.947 227.075,192.863 226.270 C 192.778 225.464,192.709 226.123,192.709 227.734 M209.466 227.734 C 209.466 228.486,209.546 228.794,209.644 228.418 C 209.743 228.042,209.743 227.427,209.644 227.051 C 209.546 226.675,209.466 226.982,209.466 227.734 M214.544 227.734 C 214.544 228.486,214.624 228.794,214.722 228.418 C 214.821 228.042,214.821 227.427,214.722 227.051 C 214.624 226.675,214.544 226.982,214.544 227.734 M318.507 246.094 C 318.507 248.564,318.571 249.575,318.648 248.340 C 318.726 247.104,318.726 245.083,318.648 243.848 C 318.571 242.612,318.507 243.623,318.507 246.094 M238.038 246.484 C 238.038 248.955,238.102 249.966,238.179 248.730 C 238.257 247.495,238.257 245.474,238.179 244.238 C 238.102 243.003,238.038 244.014,238.038 246.484 M297.000 246.875 C 297.000 248.271,297.071 248.843,297.158 248.145 C 297.244 247.446,297.244 246.304,297.158 245.605 C 297.071 244.907,297.000 245.479,297.000 246.875 M230.188 251.069 C 231.215 251.150,232.797 251.149,233.703 251.067 C 234.610 250.985,233.770 250.919,231.836 250.920 C 229.902 250.921,229.161 250.988,230.188 251.069 M209.101 260.156 C 209.101 261.338,209.175 261.821,209.264 261.230 C 209.354 260.640,209.354 259.673,209.264 259.082 C 209.175 258.491,209.101 258.975,209.101 260.156 M262.238 266.602 C 262.239 268.105,262.310 268.673,262.394 267.862 C 262.479 267.052,262.478 265.821,262.391 265.128 C 262.305 264.435,262.236 265.098,262.238 266.602 M255.212 267.773 C 255.213 269.492,255.282 270.147,255.365 269.228 C 255.447 268.309,255.446 266.903,255.362 266.103 C 255.278 265.303,255.211 266.055,255.212 267.773 " stroke="none" fill="#9a9c91" fill-rule="evenodd"></path><path id="path3" d="M250.574 178.711 C 250.574 191.172,250.623 196.326,250.683 190.165 C 250.744 184.003,250.744 173.808,250.683 167.508 C 250.623 161.209,250.574 166.250,250.574 178.711 M235.645 168.644 C 236.450 168.728,237.769 168.728,238.574 168.644 C 239.380 168.560,238.721 168.491,237.109 168.491 C 235.498 168.491,234.839 168.560,235.645 168.644 M234.162 183.789 C 234.161 191.953,234.213 195.348,234.277 191.334 C 234.340 187.320,234.340 180.640,234.277 176.491 C 234.214 172.341,234.162 175.625,234.162 183.789 M147.755 178.711 C 147.759 179.570,147.839 179.876,147.933 179.390 C 148.026 178.904,148.022 178.201,147.925 177.827 C 147.827 177.454,147.750 177.852,147.755 178.711 M159.902 225.000 C 159.902 226.826,159.969 227.573,160.052 226.660 C 160.134 225.747,160.134 224.253,160.052 223.340 C 159.969 222.427,159.902 223.174,159.902 225.000 M151.465 226.057 C 151.948 226.150,152.739 226.150,153.223 226.057 C 153.706 225.964,153.311 225.888,152.344 225.888 C 151.377 225.888,150.981 225.964,151.465 226.057 M268.094 228.125 C 268.094 229.521,268.165 230.093,268.251 229.395 C 268.338 228.696,268.338 227.554,268.251 226.855 C 268.165 226.157,268.094 226.729,268.094 228.125 M295.410 226.832 C 295.786 226.930,296.401 226.930,296.777 226.832 C 297.153 226.734,296.846 226.653,296.094 226.653 C 295.342 226.653,295.034 226.734,295.410 226.832 M228.223 229.566 C 228.599 229.664,229.214 229.664,229.590 229.566 C 229.966 229.468,229.658 229.388,228.906 229.388 C 228.154 229.388,227.847 229.468,228.223 229.566 M330.991 240.625 C 330.991 242.236,331.060 242.896,331.144 242.090 C 331.228 241.284,331.228 239.966,331.144 239.160 C 331.060 238.354,330.991 239.014,330.991 240.625 M150.251 239.753 C 150.149 239.918,150.754 239.988,151.595 239.908 C 152.437 239.827,153.125 239.692,153.125 239.607 C 153.125 239.316,150.437 239.453,150.251 239.753 M231.543 239.736 C 232.241 239.822,233.384 239.822,234.082 239.736 C 234.780 239.649,234.209 239.578,232.813 239.578 C 231.416 239.578,230.845 239.649,231.543 239.736 M313.800 246.680 C 313.802 248.184,313.872 248.751,313.957 247.941 C 314.042 247.130,314.040 245.900,313.954 245.206 C 313.868 244.513,313.798 245.176,313.800 246.680 M249.355 247.656 C 249.355 249.482,249.423 250.229,249.505 249.316 C 249.587 248.403,249.587 246.909,249.505 245.996 C 249.423 245.083,249.355 245.830,249.355 247.656 M245.441 247.852 C 245.442 249.355,245.513 249.923,245.598 249.112 C 245.682 248.302,245.681 247.071,245.594 246.378 C 245.508 245.685,245.439 246.348,245.441 247.852 M229.778 246.875 C 229.778 247.627,229.859 247.935,229.957 247.559 C 230.055 247.183,230.055 246.567,229.957 246.191 C 229.859 245.815,229.778 246.123,229.778 246.875 M266.114 249.023 C 266.118 249.883,266.198 250.188,266.292 249.702 C 266.385 249.217,266.382 248.513,266.284 248.140 C 266.186 247.767,266.110 248.164,266.114 249.023 M247.415 266.211 C 247.416 268.789,247.479 269.793,247.555 268.442 C 247.632 267.091,247.631 264.981,247.554 263.754 C 247.477 262.527,247.414 263.633,247.415 266.211 M155.203 266.406 C 155.203 267.803,155.274 268.374,155.361 267.676 C 155.447 266.978,155.447 265.835,155.361 265.137 C 155.274 264.438,155.203 265.010,155.203 266.406 " stroke="none" fill="#72766a" fill-rule="evenodd"></path><path id="path4" d="M169.829 155.354 C 170.315 155.448,171.018 155.444,171.391 155.347 C 171.765 155.249,171.367 155.172,170.508 155.177 C 169.648 155.181,169.343 155.261,169.829 155.354 M326.680 160.156 C 326.680 161.338,326.753 161.821,326.842 161.230 C 326.932 160.640,326.932 159.673,326.842 159.082 C 326.753 158.491,326.680 158.975,326.680 160.156 M118.090 163.477 C 118.092 164.766,118.165 165.246,118.252 164.544 C 118.339 163.842,118.337 162.787,118.248 162.200 C 118.159 161.613,118.088 162.188,118.090 163.477 M326.701 165.820 C 326.700 167.754,326.766 168.594,326.848 167.688 C 326.930 166.781,326.931 165.199,326.850 164.172 C 326.769 163.145,326.702 163.887,326.701 165.820 M253.250 224.609 C 253.250 226.006,253.321 226.577,253.408 225.879 C 253.494 225.181,253.494 224.038,253.408 223.340 C 253.321 222.642,253.250 223.213,253.250 224.609 M188.793 228.320 C 188.795 229.609,188.868 230.090,188.955 229.388 C 189.042 228.685,189.040 227.631,188.951 227.044 C 188.862 226.457,188.791 227.031,188.793 228.320 M330.976 246.484 C 330.976 247.666,331.050 248.149,331.139 247.559 C 331.229 246.968,331.229 246.001,331.139 245.410 C 331.050 244.819,330.976 245.303,330.976 246.484 M162.612 260.352 C 162.615 261.426,162.691 261.819,162.780 261.225 C 162.870 260.631,162.868 259.752,162.775 259.272 C 162.682 258.792,162.609 259.277,162.612 260.352 M262.216 262.500 C 262.216 263.467,262.292 263.862,262.385 263.379 C 262.478 262.896,262.478 262.104,262.385 261.621 C 262.292 261.138,262.216 261.533,262.216 262.500 M162.599 263.867 C 162.603 264.727,162.683 265.032,162.776 264.546 C 162.870 264.060,162.866 263.357,162.768 262.984 C 162.671 262.610,162.594 263.008,162.599 263.867 M162.606 267.188 C 162.606 268.154,162.683 268.550,162.776 268.066 C 162.869 267.583,162.869 266.792,162.776 266.309 C 162.683 265.825,162.606 266.221,162.606 267.188 " stroke="none" fill="#8c9484" fill-rule="evenodd"></path></g></svg>