<svg id="svg" version="1.1" xmlns="http://www.w3.org/2000/svg" xmlns:xlink="http://www.w3.org/1999/xlink" width="400" height="411.3744075829384" viewBox="0, 0, 400,411.3744075829384"><g id="svgg"><path id="path0" d="M217.180 5.364 C 192.464 7.272,171.545 15.167,151.118 30.298 C 146.254 33.901,136.281 42.569,133.038 46.012 C 115.395 64.743,103.293 84.042,96.288 104.621 C 90.569 121.422,87.993 141.306,89.106 160.071 C 90.217 178.800,96.676 200.352,105.880 216.035 C 121.527 242.699,140.234 259.622,164.692 269.242 C 184.890 277.187,211.625 278.874,231.400 273.453 C 245.949 269.465,252.185 263.099,249.882 254.590 C 248.053 247.834,242.204 245.633,231.635 247.724 C 208.570 252.287,189.839 248.232,170.616 234.515 C 142.554 214.491,130.723 175.966,143.644 146.682 C 147.128 138.786,150.680 133.676,156.912 127.597 C 170.242 114.594,185.845 109.497,203.318 112.437 C 210.998 113.729,215.334 114.480,215.640 114.571 C 216.142 114.720,227.086 116.334,230.213 116.720 C 253.754 119.629,270.321 115.088,283.432 102.133 C 294.160 91.532,300.532 74.573,299.051 60.564 C 295.844 30.218,273.942 9.598,240.866 5.784 C 237.719 5.422,220.411 5.114,217.180 5.364 M362.559 87.691 C 349.358 88.386,344.435 92.191,342.763 102.993 C 341.897 108.587,342.064 129.739,343.010 134.242 C 344.603 141.824,350.254 145.314,361.991 145.964 C 384.463 147.210,392.290 144.608,395.461 134.834 C 397.192 129.499,397.359 104.556,395.700 98.934 C 393.450 91.304,389.230 88.684,377.962 87.920 C 373.292 87.603,366.228 87.498,362.559 87.691 M28.010 138.052 C 17.607 140.330,9.567 152.250,7.005 169.194 C 5.427 179.626,4.933 201.404,6.029 212.204 C 7.254 224.269,9.177 236.200,11.053 243.365 C 18.222 270.750,27.061 290.168,42.386 312.204 C 45.035 316.013,46.235 317.576,51.756 324.408 C 62.153 337.272,77.607 351.838,90.047 360.498 C 110.522 374.750,131.825 384.963,152.617 390.496 C 165.319 393.876,172.822 395.221,187.085 396.677 C 229.251 400.982,273.460 391.894,307.227 371.979 C 312.599 368.811,314.622 367.516,318.602 364.694 C 319.645 363.955,321.617 362.566,322.986 361.606 C 324.354 360.647,326.479 359.056,327.708 358.071 C 328.937 357.086,330.537 355.809,331.263 355.234 C 336.446 351.129,348.614 338.923,353.135 333.294 C 390.121 287.241,393.578 226.577,361.685 183.232 C 356.306 175.922,343.654 164.097,335.896 159.129 C 323.184 150.991,312.320 146.236,297.986 142.538 C 252.729 130.862,210.025 143.915,200.349 172.381 C 195.880 185.531,198.963 199.190,207.346 203.381 C 213.289 206.351,221.481 204.821,227.707 199.578 C 228.592 198.833,230.592 197.148,232.151 195.835 C 243.349 186.404,253.056 183.889,267.180 186.758 C 287.571 190.901,301.696 204.708,305.455 224.171 C 315.097 274.099,262.607 314.283,194.489 309.120 C 189.155 308.716,188.175 308.590,181.635 307.466 C 166.854 304.926,154.819 300.784,141.114 293.520 C 139.159 292.484,137.271 291.435,136.920 291.190 C 136.568 290.944,135.181 290.080,133.839 289.270 C 99.213 268.366,72.708 227.215,68.481 187.796 C 67.758 181.055,66.687 173.023,66.096 169.905 C 63.826 157.927,51.352 142.988,40.284 138.991 C 36.676 137.688,31.486 137.291,28.010 138.052 " stroke="none" fill="#1a432b" fill-rule="evenodd"></path><path id="path1" d="M0.000 205.687 L 0.000 411.374 200.000 411.374 L 400.000 411.374 400.000 205.687 L 400.000 0.000 200.000 0.000 L 0.000 0.000 0.000 205.687 M235.782 5.217 C 269.634 7.543,292.705 25.701,298.330 54.445 C 299.136 58.564,299.301 60.179,299.303 63.952 C 299.311 88.994,282.901 110.150,258.768 116.214 C 258.442 116.295,257.591 116.520,256.877 116.713 C 253.445 117.640,243.636 118.042,236.730 117.538 C 231.838 117.181,228.405 116.828,227.488 116.588 C 227.032 116.468,224.419 116.048,221.682 115.654 C 218.945 115.261,213.880 114.449,210.427 113.851 C 200.091 112.060,199.919 112.041,193.602 112.029 C 181.696 112.004,172.744 115.145,162.441 122.962 C 132.893 145.378,130.537 190.235,157.243 221.939 C 167.825 234.502,184.804 244.811,199.577 247.643 C 210.909 249.815,221.321 249.668,232.938 247.173 C 243.371 244.933,250.355 249.207,250.355 257.833 C 250.355 262.046,248.708 264.937,244.565 267.992 C 234.758 275.224,209.280 278.986,190.640 275.955 C 189.467 275.764,186.961 275.392,185.071 275.129 C 182.176 274.725,172.663 272.543,171.993 272.129 C 171.878 272.058,170.748 271.695,169.482 271.323 C 167.382 270.706,163.368 269.270,162.204 268.718 C 161.943 268.594,160.851 268.128,159.777 267.682 C 158.703 267.235,156.783 266.294,155.511 265.589 C 154.240 264.885,152.783 264.115,152.275 263.880 C 150.975 263.277,145.378 259.845,143.957 258.779 C 143.306 258.290,141.706 257.139,140.403 256.221 C 127.614 247.214,113.873 230.831,103.381 212.085 C 95.874 198.672,89.756 176.094,88.836 158.412 C 87.241 127.765,94.999 98.733,111.694 72.867 C 120.083 59.871,128.593 49.725,139.100 40.193 C 157.172 23.797,174.726 14.047,196.327 8.407 C 203.275 6.593,209.594 5.654,218.365 5.132 C 221.416 4.951,232.707 5.006,235.782 5.217 M373.460 87.449 C 389.354 88.111,394.447 91.079,396.359 100.796 C 396.859 103.335,397.094 121.520,396.699 127.080 C 395.591 142.671,390.540 146.331,370.142 146.320 C 349.911 146.309,344.290 143.455,342.473 132.273 C 341.940 128.993,341.873 107.975,342.383 104.265 C 343.999 92.511,348.951 88.259,361.967 87.452 C 366.243 87.187,367.162 87.186,373.460 87.449 M36.493 137.780 C 45.770 139.462,56.720 148.903,62.765 160.432 C 65.847 166.310,66.651 169.738,68.238 183.768 C 68.636 187.287,69.337 192.405,69.794 195.142 C 75.439 228.897,96.211 261.771,125.592 283.448 C 129.919 286.640,131.408 287.601,139.100 292.162 C 147.257 296.999,162.094 302.932,171.445 305.096 C 172.879 305.428,174.639 305.852,175.355 306.040 C 191.218 310.189,217.849 310.192,236.773 306.046 C 281.403 296.270,309.799 265.284,306.183 230.306 C 303.620 205.513,287.499 189.259,262.472 186.236 C 249.598 184.681,241.713 187.670,228.555 199.094 C 219.068 207.330,207.635 207.165,201.929 198.709 C 197.156 191.637,196.824 180.349,201.084 169.982 C 209.093 150.491,233.990 138.046,264.929 138.067 C 273.763 138.074,274.523 138.130,283.886 139.467 C 347.425 148.543,388.123 198.212,383.058 260.498 C 379.966 298.528,360.452 332.710,326.777 359.083 C 325.663 359.955,319.340 364.439,315.577 367.025 C 309.803 370.992,297.929 377.546,291.469 380.331 C 290.492 380.753,289.130 381.351,288.442 381.662 C 279.445 385.725,265.398 390.276,254.858 392.542 C 253.815 392.766,252.376 393.091,251.659 393.264 C 241.731 395.660,220.706 398.091,209.831 398.101 C 199.794 398.110,182.974 396.766,174.289 395.261 C 172.855 395.012,170.296 394.582,168.602 394.304 C 166.908 394.027,164.668 393.598,163.626 393.350 C 151.194 390.402,150.314 390.159,141.825 387.317 C 127.701 382.590,113.654 375.899,100.711 367.733 C 97.422 365.657,91.224 361.560,89.887 360.577 C 89.473 360.273,88.354 359.449,87.399 358.748 C 83.863 356.149,75.059 348.965,72.698 346.753 C 65.060 339.594,56.982 331.162,52.940 326.126 C 51.397 324.203,50.072 322.577,49.997 322.512 C 49.628 322.191,44.653 315.719,43.257 313.744 C 32.838 299.001,23.624 281.974,18.957 268.839 C 18.587 267.796,17.649 265.232,16.874 263.141 C 13.231 253.318,9.776 239.938,7.948 228.578 C 7.542 226.053,6.616 218.862,6.039 213.744 C 4.847 203.182,5.096 182.431,6.545 171.564 C 9.689 147.983,21.194 135.005,36.493 137.780 " stroke="none" fill="#f4ecdc" fill-rule="evenodd"></path><path id="path2" d="M222.927 5.154 C 224.914 5.193,228.166 5.193,230.154 5.154 C 232.142 5.114,230.515 5.081,226.540 5.081 C 222.565 5.081,220.939 5.114,222.927 5.154 M215.812 5.384 C 216.233 5.437,216.979 5.438,217.471 5.386 C 217.963 5.335,217.618 5.292,216.706 5.291 C 215.794 5.290,215.392 5.332,215.812 5.384 M235.490 5.385 C 235.916 5.438,236.556 5.437,236.912 5.383 C 237.268 5.329,236.919 5.285,236.137 5.287 C 235.355 5.288,235.064 5.332,235.490 5.385 M212.855 5.620 C 213.214 5.674,213.800 5.674,214.159 5.620 C 214.517 5.566,214.224 5.521,213.507 5.521 C 212.790 5.521,212.497 5.566,212.855 5.620 M238.803 5.617 C 239.097 5.674,239.576 5.674,239.870 5.617 C 240.163 5.561,239.923 5.515,239.336 5.515 C 238.750 5.515,238.510 5.561,238.803 5.617 M210.489 5.857 C 210.849 5.912,211.382 5.910,211.674 5.854 C 211.965 5.798,211.671 5.753,211.019 5.755 C 210.367 5.757,210.129 5.803,210.489 5.857 M241.176 5.855 C 241.471 5.911,241.897 5.909,242.124 5.850 C 242.350 5.791,242.109 5.744,241.588 5.747 C 241.066 5.750,240.881 5.798,241.176 5.855 M208.590 6.088 C 208.818 6.147,209.191 6.147,209.419 6.088 C 209.648 6.028,209.461 5.979,209.005 5.979 C 208.549 5.979,208.362 6.028,208.590 6.088 M204.384 6.635 C 203.750 6.796,203.737 6.816,204.265 6.816 C 204.591 6.816,205.178 6.735,205.569 6.635 C 206.203 6.474,206.216 6.454,205.687 6.454 C 205.361 6.454,204.775 6.536,204.384 6.635 M200.711 7.346 C 200.242 7.496,200.217 7.536,200.592 7.536 C 200.853 7.536,201.333 7.450,201.659 7.346 C 202.128 7.196,202.153 7.156,201.777 7.156 C 201.517 7.156,201.037 7.242,200.711 7.346 M250.829 7.481 C 251.481 7.662,252.174 7.803,252.370 7.794 C 252.565 7.785,252.192 7.629,251.540 7.448 C 250.889 7.267,250.195 7.126,250.000 7.135 C 249.805 7.144,250.178 7.300,250.829 7.481 M254.147 8.262 C 254.408 8.376,254.994 8.537,255.450 8.620 C 256.020 8.723,256.131 8.705,255.806 8.563 C 255.545 8.449,254.959 8.288,254.502 8.205 C 253.933 8.102,253.822 8.120,254.147 8.262 M257.109 9.123 C 258.191 9.540,258.617 9.534,257.701 9.115 C 257.310 8.936,256.831 8.792,256.635 8.796 C 256.440 8.801,256.653 8.948,257.109 9.123 M264.712 12.174 C 264.956 12.392,266.351 13.033,266.351 12.927 C 266.351 12.790,265.037 12.085,264.783 12.085 C 264.689 12.085,264.657 12.125,264.712 12.174 M270.498 15.289 C 270.758 15.501,271.185 15.779,271.445 15.907 L 271.919 16.140 271.445 15.754 C 271.185 15.542,270.758 15.263,270.498 15.135 L 270.024 14.903 270.498 15.289 M272.867 16.749 C 272.998 16.875,273.691 17.374,274.408 17.859 C 275.350 18.496,275.502 18.557,274.959 18.079 C 274.257 17.461,272.347 16.247,272.867 16.749 M280.322 22.571 C 281.304 23.617,281.517 23.805,281.517 23.628 C 281.517 23.590,281.010 23.083,280.391 22.502 L 279.265 21.445 280.322 22.571 M285.071 27.370 C 285.513 27.826,285.928 28.199,285.993 28.199 C 286.059 28.199,285.750 27.826,285.308 27.370 C 284.866 26.914,284.451 26.540,284.386 26.540 C 284.321 26.540,284.629 26.914,285.071 27.370 M290.491 34.479 C 290.619 34.739,290.897 35.166,291.109 35.427 L 291.495 35.900 291.263 35.427 C 291.135 35.166,290.856 34.739,290.644 34.479 L 290.258 34.005 290.491 34.479 M139.440 39.870 L 138.744 40.640 139.514 39.944 C 139.938 39.561,140.284 39.214,140.284 39.174 C 140.284 38.991,140.089 39.152,139.440 39.870 M136.730 42.299 C 136.154 42.885,135.737 43.365,135.802 43.365 C 135.867 43.365,136.391 42.885,136.967 42.299 C 137.542 41.712,137.960 41.232,137.895 41.232 C 137.830 41.232,137.305 41.712,136.730 42.299 M295.298 43.957 C 295.297 44.088,295.440 44.568,295.616 45.024 C 295.792 45.480,295.939 45.693,295.943 45.498 C 295.947 45.302,295.804 44.822,295.625 44.431 C 295.446 44.040,295.299 43.827,295.298 43.957 M130.441 48.637 L 129.265 49.882 130.509 48.706 C 131.665 47.613,131.862 47.393,131.685 47.393 C 131.648 47.393,131.088 47.953,130.441 48.637 M127.832 51.481 L 126.896 52.488 127.903 51.551 C 128.839 50.680,129.019 50.474,128.840 50.474 C 128.801 50.474,128.348 50.927,127.832 51.481 M297.923 53.081 C 297.923 53.406,298.005 53.993,298.104 54.384 C 298.266 55.018,298.285 55.031,298.285 54.502 C 298.285 54.177,298.204 53.590,298.104 53.199 C 297.943 52.565,297.923 52.552,297.923 53.081 M298.502 56.280 C 298.577 56.931,298.679 57.509,298.727 57.563 C 298.894 57.750,298.768 56.279,298.567 55.687 C 298.431 55.288,298.410 55.481,298.502 56.280 M298.983 59.716 C 299.054 60.823,299.153 61.774,299.201 61.829 C 299.361 62.008,299.257 59.853,299.054 58.768 C 298.908 57.993,298.889 58.252,298.983 59.716 M299.135 66.588 C 299.135 67.695,299.176 68.149,299.226 67.595 C 299.276 67.041,299.276 66.134,299.226 65.581 C 299.176 65.027,299.135 65.480,299.135 66.588 M298.875 69.550 C 298.878 70.071,298.926 70.256,298.983 69.962 C 299.039 69.667,299.037 69.240,298.978 69.014 C 298.919 68.787,298.872 69.028,298.875 69.550 M298.479 71.821 C 298.390 72.492,298.365 73.089,298.424 73.147 C 298.482 73.205,298.605 72.706,298.697 72.038 C 298.789 71.370,298.814 70.773,298.753 70.712 C 298.691 70.650,298.569 71.149,298.479 71.821 M296.631 80.280 C 296.286 81.412,296.043 82.378,296.091 82.426 C 296.139 82.474,296.465 81.592,296.816 80.466 C 297.167 79.340,297.411 78.374,297.356 78.320 C 297.302 78.266,296.976 79.148,296.631 80.280 M295.305 84.049 C 295.030 84.795,294.844 85.444,294.891 85.492 C 294.939 85.539,295.205 84.970,295.483 84.227 C 295.761 83.484,295.947 82.835,295.897 82.784 C 295.846 82.734,295.580 83.303,295.305 84.049 M294.351 86.385 C 293.954 87.256,294.030 87.442,294.459 86.650 C 294.660 86.280,294.779 85.933,294.725 85.879 C 294.671 85.824,294.503 86.052,294.351 86.385 M361.848 87.455 C 360.219 87.566,358.406 87.765,357.820 87.897 L 356.754 88.138 358.057 88.009 C 361.395 87.681,366.908 87.521,371.445 87.622 C 374.182 87.683,376.368 87.681,376.303 87.616 C 376.069 87.384,364.744 87.258,361.848 87.455 M377.310 87.850 C 377.799 87.901,378.599 87.901,379.088 87.850 C 379.576 87.799,379.177 87.757,378.199 87.757 C 377.222 87.757,376.822 87.799,377.310 87.850 M380.391 88.078 C 380.619 88.138,380.992 88.138,381.220 88.078 C 381.448 88.018,381.262 87.970,380.806 87.970 C 380.350 87.970,380.163 88.018,380.391 88.078 M354.502 88.507 C 353.077 88.920,353.805 88.928,355.450 88.517 C 356.167 88.338,356.487 88.193,356.161 88.195 C 355.835 88.197,355.089 88.337,354.502 88.507 M291.422 92.121 C 290.153 94.052,289.997 94.313,290.107 94.313 C 290.211 94.313,290.545 93.836,291.812 91.884 C 292.044 91.525,292.183 91.232,292.120 91.232 C 292.058 91.232,291.743 91.632,291.422 92.121 M347.144 92.358 L 346.327 93.246 347.216 92.430 C 347.704 91.981,348.104 91.581,348.104 91.541 C 348.104 91.360,347.904 91.531,347.144 92.358 M288.729 96.149 C 288.111 97.029,287.329 98.068,286.990 98.459 L 286.374 99.169 286.983 98.635 C 287.581 98.111,290.178 94.550,289.962 94.550 C 289.902 94.550,289.347 95.270,288.729 96.149 M282.938 102.667 C 281.049 104.513,280.036 105.581,280.687 105.042 C 281.869 104.065,286.705 99.279,286.488 99.301 C 286.426 99.307,284.828 100.822,282.938 102.667 M396.505 103.199 C 396.508 103.720,396.556 103.906,396.613 103.611 C 396.670 103.316,396.668 102.890,396.608 102.663 C 396.549 102.437,396.503 102.678,396.505 103.199 M342.472 104.028 C 342.472 104.485,342.521 104.671,342.580 104.443 C 342.640 104.215,342.640 103.842,342.580 103.614 C 342.521 103.386,342.472 103.572,342.472 104.028 M396.775 107.820 C 396.775 109.579,396.813 110.299,396.858 109.419 C 396.904 108.540,396.904 107.100,396.858 106.220 C 396.813 105.341,396.775 106.060,396.775 107.820 M342.098 108.450 C 341.909 112.397,341.945 126.974,342.150 129.265 C 342.232 130.178,342.299 125.139,342.299 118.069 C 342.299 110.998,342.288 105.213,342.276 105.213 C 342.264 105.213,342.184 106.670,342.098 108.450 M276.646 107.897 C 275.726 108.572,274.713 109.315,274.395 109.549 C 274.076 109.783,273.975 109.899,274.171 109.807 C 275.152 109.343,278.931 106.519,278.391 106.653 C 278.350 106.663,277.565 107.223,276.646 107.897 M271.090 111.374 C 270.373 111.753,269.870 112.068,269.972 112.074 C 270.224 112.089,272.512 110.922,272.512 110.778 C 272.512 110.620,272.545 110.606,271.090 111.374 M189.218 111.771 C 186.236 111.958,180.319 113.100,180.645 113.425 C 180.699 113.479,181.530 113.312,182.492 113.055 C 185.655 112.209,187.872 112.003,193.957 111.991 C 198.012 111.982,199.208 111.928,197.749 111.820 C 195.588 111.659,191.382 111.635,189.218 111.771 M200.654 112.253 C 200.949 112.310,201.376 112.307,201.602 112.248 C 201.829 112.189,201.588 112.142,201.066 112.145 C 200.545 112.148,200.360 112.196,200.654 112.253 M267.687 112.904 C 266.021 113.632,265.364 113.981,265.662 113.981 C 265.847 113.981,269.455 112.378,269.602 112.230 C 269.852 111.980,269.601 112.069,267.687 112.904 M204.384 112.796 C 205.386 113.051,206.247 113.051,205.450 112.796 C 205.124 112.692,204.591 112.608,204.265 112.611 C 203.733 112.615,203.745 112.634,204.384 112.796 M208.412 113.521 C 209.613 113.769,210.583 113.758,209.597 113.507 C 209.206 113.408,208.566 113.326,208.175 113.325 C 207.578 113.325,207.615 113.356,208.412 113.521 M179.265 113.744 C 178.967 113.872,178.923 113.948,179.147 113.948 C 179.342 113.948,179.716 113.856,179.976 113.744 C 180.275 113.616,180.319 113.540,180.095 113.540 C 179.899 113.540,179.526 113.632,179.265 113.744 M210.723 113.907 C 210.951 113.967,211.324 113.967,211.552 113.907 C 211.780 113.848,211.594 113.799,211.137 113.799 C 210.681 113.799,210.495 113.848,210.723 113.907 M263.981 114.364 C 257.430 117.243,247.818 118.008,231.517 116.947 L 229.976 116.847 231.398 117.049 C 238.348 118.036,252.020 117.926,256.398 116.848 C 259.596 116.060,265.403 114.280,265.403 114.088 C 265.403 113.885,264.809 114.000,263.981 114.364 M176.422 114.819 C 175.829 115.104,175.810 115.137,176.303 115.016 C 176.975 114.852,177.730 114.468,177.370 114.473 C 177.239 114.475,176.813 114.630,176.422 114.819 M172.334 116.577 C 170.738 117.351,169.431 118.045,169.431 118.118 C 169.431 118.191,170.471 117.739,171.742 117.113 C 173.012 116.488,174.425 115.800,174.882 115.586 C 175.338 115.372,175.604 115.190,175.474 115.182 C 175.344 115.174,173.931 115.802,172.334 116.577 M227.370 116.583 C 227.818 116.780,230.048 116.921,229.838 116.739 C 229.784 116.692,229.100 116.591,228.318 116.514 C 227.414 116.426,227.069 116.451,227.370 116.583 M167.205 119.423 C 166.176 120.065,165.216 120.715,165.072 120.868 C 164.796 121.160,168.677 118.816,169.064 118.456 C 169.523 118.029,169.028 118.287,167.205 119.423 M396.775 122.512 C 396.775 124.271,396.813 124.991,396.858 124.111 C 396.904 123.232,396.904 121.792,396.858 120.912 C 396.813 120.033,396.775 120.752,396.775 122.512 M162.080 123.017 C 159.526 124.998,155.163 129.133,153.001 131.621 C 152.328 132.395,153.643 131.163,155.924 128.883 C 158.205 126.603,161.111 123.955,162.382 122.998 C 164.433 121.454,164.861 121.090,164.627 121.090 C 164.591 121.090,163.445 121.957,162.080 123.017 M396.517 127.962 C 396.517 128.679,396.561 128.972,396.615 128.614 C 396.670 128.255,396.670 127.669,396.615 127.310 C 396.561 126.952,396.517 127.245,396.517 127.962 M90.102 130.569 C 90.102 131.025,90.151 131.211,90.211 130.983 C 90.270 130.755,90.270 130.382,90.211 130.154 C 90.151 129.926,90.102 130.113,90.102 130.569 M396.264 130.569 C 396.264 131.025,396.312 131.211,396.372 130.983 C 396.431 130.755,396.431 130.382,396.372 130.154 C 396.312 129.926,396.264 130.113,396.264 130.569 M342.472 131.754 C 342.472 132.210,342.521 132.396,342.580 132.168 C 342.640 131.940,342.640 131.567,342.580 131.339 C 342.521 131.111,342.472 131.297,342.472 131.754 M89.865 132.227 C 89.865 132.684,89.914 132.870,89.974 132.642 C 90.033 132.414,90.033 132.041,89.974 131.813 C 89.914 131.585,89.865 131.771,89.865 132.227 M89.455 135.071 C 89.361 136.129,89.336 137.045,89.398 137.107 C 89.460 137.169,89.586 136.354,89.679 135.295 C 89.771 134.236,89.797 133.320,89.736 133.259 C 89.675 133.198,89.549 134.013,89.455 135.071 M150.551 134.656 C 150.287 134.950,149.731 135.723,149.314 136.374 C 148.568 137.542,148.906 137.167,150.413 135.151 C 151.249 134.033,151.311 133.812,150.551 134.656 M394.588 136.858 C 394.191 137.730,394.267 137.916,394.696 137.124 C 394.897 136.754,395.016 136.407,394.962 136.352 C 394.908 136.298,394.740 136.526,394.588 136.858 M31.102 137.616 C 31.851 137.663,33.078 137.663,33.827 137.616 C 34.576 137.569,33.963 137.530,32.464 137.530 C 30.966 137.530,30.352 137.569,31.102 137.616 M88.979 140.366 C 88.885 141.991,88.857 143.464,88.916 143.639 C 88.975 143.814,89.102 142.534,89.197 140.795 C 89.292 139.055,89.320 137.583,89.260 137.522 C 89.199 137.461,89.072 138.741,88.979 140.366 M147.199 139.633 C 145.952 141.711,144.546 144.414,144.555 144.721 C 144.558 144.822,145.123 143.839,145.812 142.536 C 146.501 141.232,147.333 139.739,147.660 139.218 C 148.547 137.807,148.617 137.678,148.490 137.678 C 148.425 137.678,147.845 138.557,147.199 139.633 M256.976 138.148 C 250.801 138.672,236.739 141.320,237.277 141.858 C 237.328 141.909,238.372 141.687,239.597 141.363 C 262.094 135.431,290.746 138.102,315.758 148.462 C 320.247 150.321,320.855 150.530,318.560 149.427 C 307.749 144.226,293.966 140.626,276.777 138.512 C 273.277 138.081,260.522 137.847,256.976 138.148 M344.806 139.100 C 346.225 142.075,353.020 145.800,356.872 145.714 C 357.198 145.707,356.530 145.504,355.388 145.263 C 350.386 144.209,347.688 142.628,345.070 139.218 C 344.610 138.620,344.569 138.601,344.806 139.100 M45.735 141.555 C 45.735 141.621,46.055 141.902,46.445 142.180 C 46.836 142.459,47.156 142.633,47.156 142.568 C 47.156 142.503,46.836 142.222,46.445 141.943 C 46.055 141.665,45.735 141.490,45.735 141.555 M17.885 143.898 L 15.995 145.853 17.950 143.963 C 19.025 142.923,19.905 142.044,19.905 142.008 C 19.905 141.835,19.641 142.082,17.885 143.898 M235.900 142.180 C 235.602 142.308,235.558 142.384,235.782 142.384 C 235.977 142.384,236.351 142.292,236.611 142.180 C 236.910 142.052,236.954 141.976,236.730 141.976 C 236.534 141.976,236.161 142.068,235.900 142.180 M47.478 142.837 C 47.666 143.140,49.052 144.166,49.052 144.002 C 49.052 143.943,48.661 143.597,48.182 143.232 C 47.704 142.867,47.387 142.689,47.478 142.837 M52.630 147.397 C 54.532 149.285,56.487 151.309,56.974 151.896 L 57.860 152.962 57.080 151.896 C 56.089 150.540,52.446 146.770,50.592 145.183 C 49.810 144.514,50.727 145.510,52.630 147.397 M88.729 150.355 C 88.729 153.744,88.762 155.097,88.803 153.363 C 88.843 151.628,88.843 148.856,88.803 147.202 C 88.762 145.548,88.729 146.967,88.729 150.355 M359.005 146.023 C 360.815 146.342,379.186 146.354,380.687 146.036 C 381.675 145.827,381.458 145.811,379.384 145.938 C 376.199 146.133,364.520 146.135,360.664 145.941 C 358.384 145.827,358.002 145.846,359.005 146.023 M143.640 146.574 C 143.243 147.446,143.319 147.631,143.748 146.839 C 143.949 146.469,144.069 146.122,144.014 146.068 C 143.960 146.014,143.792 146.242,143.640 146.574 M142.929 148.233 C 142.532 149.104,142.608 149.290,143.038 148.498 C 143.238 148.128,143.358 147.781,143.303 147.727 C 143.249 147.673,143.081 147.900,142.929 148.233 M221.979 148.003 C 221.093 148.483,221.147 148.684,222.038 148.223 C 222.429 148.021,222.749 147.805,222.749 147.743 C 222.749 147.590,222.723 147.599,221.979 148.003 M320.399 150.328 C 320.640 150.551,325.829 153.072,325.829 152.966 C 325.829 152.835,320.720 150.237,320.462 150.237 C 320.373 150.237,320.345 150.278,320.399 150.328 M141.732 151.211 C 141.587 151.630,141.509 152.014,141.559 152.065 C 141.610 152.115,141.771 151.814,141.917 151.395 C 142.063 150.977,142.141 150.593,142.090 150.542 C 142.039 150.491,141.878 150.792,141.732 151.211 M140.790 154.081 C 138.853 161.334,137.972 170.667,138.582 177.488 C 138.767 179.555,138.784 179.153,138.682 175.118 C 138.505 168.083,139.087 162.365,140.658 155.710 C 141.226 153.300,141.326 152.073,140.790 154.081 M326.066 153.187 C 326.066 153.252,326.386 153.471,326.777 153.673 C 327.168 153.875,327.488 153.987,327.488 153.922 C 327.488 153.857,327.168 153.638,326.777 153.436 C 326.386 153.234,326.066 153.122,326.066 153.187 M327.725 154.135 C 327.725 154.200,328.045 154.419,328.436 154.621 C 328.827 154.823,329.147 154.935,329.147 154.870 C 329.147 154.805,328.827 154.586,328.436 154.384 C 328.045 154.182,327.725 154.070,327.725 154.135 M209.946 156.813 L 208.412 158.412 210.012 156.879 C 210.892 156.035,211.611 155.316,211.611 155.279 C 211.611 155.105,211.370 155.327,209.946 156.813 M329.858 155.289 C 329.858 155.361,331.004 156.117,332.405 156.970 C 333.806 157.822,335.299 158.746,335.723 159.022 C 336.146 159.299,336.493 159.479,336.493 159.423 C 336.493 159.281,334.313 157.831,332.464 156.743 C 331.617 156.245,330.684 155.685,330.391 155.498 C 330.098 155.311,329.858 155.218,329.858 155.289 M88.947 159.597 C 88.946 160.770,88.986 161.280,89.036 160.730 C 89.085 160.180,89.086 159.220,89.037 158.597 C 88.988 157.974,88.947 158.424,88.947 159.597 M336.848 159.651 C 336.979 159.784,338.596 161.026,340.442 162.411 C 344.918 165.770,349.450 169.839,354.613 175.135 C 356.954 177.537,358.005 178.543,356.948 177.370 C 354.330 174.463,348.306 168.602,345.163 165.904 C 342.231 163.387,335.690 158.468,336.848 159.651 M89.167 163.152 C 89.169 163.803,89.215 164.042,89.270 163.682 C 89.324 163.321,89.323 162.788,89.266 162.497 C 89.210 162.205,89.166 162.500,89.167 163.152 M63.761 162.678 C 63.761 162.808,63.913 163.181,64.100 163.507 C 64.286 163.833,64.438 163.993,64.438 163.863 C 64.438 163.732,64.286 163.359,64.100 163.033 C 63.913 162.707,63.761 162.547,63.761 162.678 M89.391 165.640 C 89.391 166.096,89.440 166.283,89.500 166.055 C 89.559 165.826,89.559 165.453,89.500 165.225 C 89.440 164.997,89.391 165.184,89.391 165.640 M65.202 166.351 C 65.202 166.546,65.346 167.079,65.521 167.536 C 65.697 167.992,65.841 168.205,65.841 168.009 C 65.841 167.814,65.697 167.281,65.521 166.825 C 65.346 166.368,65.202 166.155,65.202 166.351 M89.633 167.417 C 89.636 167.938,89.684 168.124,89.741 167.829 C 89.798 167.534,89.796 167.108,89.736 166.881 C 89.677 166.655,89.631 166.896,89.633 167.417 M202.251 167.299 C 202.049 167.690,201.937 168.009,202.002 168.009 C 202.067 168.009,202.286 167.690,202.488 167.299 C 202.690 166.908,202.802 166.588,202.737 166.588 C 202.672 166.588,202.453 166.908,202.251 167.299 M89.866 169.076 C 89.866 169.467,89.948 170.107,90.047 170.498 C 90.298 171.483,90.309 170.513,90.061 169.313 C 89.896 168.516,89.865 168.478,89.866 169.076 M66.275 170.735 C 66.350 171.386,66.451 171.964,66.500 172.018 C 66.666 172.205,66.540 170.734,66.339 170.142 C 66.203 169.743,66.182 169.936,66.275 170.735 M66.615 172.548 C 66.600 172.763,66.794 174.362,67.047 176.102 C 67.300 177.842,67.586 180.012,67.684 180.924 C 67.782 181.836,67.902 182.404,67.950 182.185 C 67.998 181.967,67.811 180.047,67.534 177.920 C 67.012 173.915,66.662 171.870,66.615 172.548 M6.216 174.171 C 6.216 174.627,6.265 174.813,6.324 174.585 C 6.384 174.357,6.384 173.984,6.324 173.756 C 6.265 173.528,6.216 173.714,6.216 174.171 M5.989 176.303 C 5.989 176.890,6.035 177.130,6.091 176.836 C 6.148 176.543,6.148 176.063,6.091 175.770 C 6.035 175.477,5.989 175.717,5.989 176.303 M5.755 179.265 C 5.757 179.917,5.803 180.156,5.857 179.795 C 5.912 179.435,5.910 178.902,5.854 178.610 C 5.798 178.319,5.753 178.614,5.755 179.265 M358.768 179.695 C 358.768 179.736,359.114 180.082,359.538 180.465 L 360.308 181.161 359.612 180.391 C 358.963 179.673,358.768 179.512,358.768 179.695 M139.005 181.517 C 139.146 183.260,139.521 185.115,139.531 184.123 C 139.535 183.797,139.389 182.731,139.209 181.754 L 138.880 179.976 139.005 181.517 M198.198 184.360 C 198.198 186.250,198.235 187.023,198.280 186.078 C 198.325 185.133,198.325 183.587,198.280 182.642 C 198.235 181.697,198.198 182.470,198.198 184.360 M92.220 181.517 C 92.232 182.132,92.606 183.144,92.614 182.583 C 92.618 182.322,92.529 181.896,92.417 181.635 C 92.292 181.345,92.216 181.299,92.220 181.517 M5.537 183.768 C 5.537 185.071,5.577 185.574,5.625 184.885 C 5.673 184.197,5.673 183.130,5.624 182.516 C 5.575 181.901,5.536 182.464,5.537 183.768 M68.074 183.649 C 68.074 184.236,68.120 184.476,68.177 184.182 C 68.233 183.889,68.233 183.409,68.177 183.116 C 68.120 182.823,68.074 183.063,68.074 183.649 M92.924 184.360 C 92.924 184.556,93.016 184.929,93.128 185.190 C 93.256 185.488,93.332 185.532,93.332 185.308 C 93.332 185.113,93.240 184.739,93.128 184.479 C 93.000 184.180,92.924 184.136,92.924 184.360 M362.795 184.775 C 363.106 185.198,363.396 185.545,363.442 185.545 C 363.621 185.545,363.034 184.656,362.645 184.341 C 362.389 184.133,362.447 184.298,362.795 184.775 M68.311 185.782 C 68.311 186.368,68.357 186.608,68.414 186.315 C 68.470 186.022,68.470 185.542,68.414 185.249 C 68.357 184.956,68.311 185.195,68.311 185.782 M93.398 186.019 C 93.398 186.214,93.490 186.588,93.602 186.848 C 93.730 187.147,93.806 187.191,93.806 186.967 C 93.806 186.771,93.714 186.398,93.602 186.137 C 93.474 185.839,93.398 185.795,93.398 186.019 M251.777 186.045 C 249.792 186.332,247.812 186.753,247.924 186.865 C 247.976 186.917,248.811 186.798,249.779 186.600 C 254.266 185.682,261.993 185.904,267.750 187.115 C 269.237 187.427,270.507 187.628,270.574 187.562 C 270.641 187.495,270.637 187.441,270.566 187.441 C 270.495 187.441,269.171 187.179,267.624 186.859 C 262.422 185.782,255.912 185.448,251.777 186.045 M139.849 186.493 C 139.839 186.688,139.975 187.488,140.152 188.270 C 140.328 189.052,140.473 189.425,140.474 189.100 C 140.476 188.435,139.877 185.937,139.849 186.493 M68.518 187.915 C 68.508 188.812,69.362 194.029,69.390 193.246 C 69.400 192.986,69.209 191.493,68.967 189.929 C 68.725 188.365,68.523 187.459,68.518 187.915 M244.950 187.721 C 244.192 187.985,243.614 188.242,243.664 188.293 C 243.715 188.344,244.495 188.127,245.397 187.812 C 246.300 187.497,246.878 187.240,246.682 187.240 C 246.487 187.241,245.707 187.457,244.950 187.721 M93.872 187.678 C 93.872 187.873,93.964 188.246,94.076 188.507 C 94.204 188.806,94.279 188.850,94.279 188.626 C 94.279 188.430,94.188 188.057,94.076 187.796 C 93.947 187.497,93.872 187.454,93.872 187.678 M272.867 188.400 C 273.519 188.654,274.159 188.856,274.289 188.849 C 274.645 188.830,272.449 187.942,272.038 187.939 C 271.842 187.938,272.216 188.145,272.867 188.400 M241.884 188.997 C 241.265 189.319,240.758 189.636,240.758 189.700 C 240.758 189.806,243.104 188.698,243.345 188.479 C 243.639 188.211,242.868 188.485,241.884 188.997 M366.320 189.929 C 366.448 190.190,366.727 190.616,366.939 190.877 L 367.325 191.351 367.092 190.877 C 366.964 190.616,366.686 190.190,366.473 189.929 L 366.088 189.455 366.320 189.929 M94.583 190.047 C 94.583 190.243,94.675 190.616,94.787 190.877 C 94.915 191.176,94.990 191.219,94.990 190.995 C 94.990 190.800,94.899 190.427,94.787 190.166 C 94.658 189.867,94.583 189.823,94.583 190.047 M238.655 190.873 C 237.824 191.442,237.024 192.037,236.878 192.195 C 236.731 192.353,237.464 191.918,238.507 191.229 C 240.710 189.773,240.666 189.806,240.383 189.824 C 240.264 189.832,239.486 190.304,238.655 190.873 M278.930 190.610 C 279.174 190.828,280.569 191.469,280.569 191.363 C 280.569 191.226,279.255 190.521,279.001 190.521 C 278.907 190.521,278.875 190.561,278.930 190.610 M5.313 195.379 C 5.313 197.986,5.347 199.084,5.390 197.821 C 5.432 196.557,5.432 194.424,5.390 193.081 C 5.348 191.738,5.313 192.773,5.313 195.379 M282.820 192.728 C 283.993 193.417,285.273 194.182,285.664 194.427 C 286.055 194.673,286.268 194.754,286.137 194.608 C 285.793 194.222,281.224 191.469,280.933 191.472 C 280.798 191.473,281.647 192.038,282.820 192.728 M141.250 192.535 C 141.224 192.881,142.924 197.913,143.031 197.806 C 143.081 197.756,142.705 196.497,142.195 195.007 C 141.685 193.517,141.260 192.405,141.250 192.535 M233.822 194.437 C 232.435 195.548,231.224 196.580,231.132 196.730 C 231.039 196.880,232.128 196.065,233.550 194.919 C 236.415 192.612,236.642 192.417,236.466 192.417 C 236.398 192.417,235.209 193.326,233.822 194.437 M69.450 194.082 C 69.422 194.625,70.573 200.961,70.849 201.777 L 71.088 202.488 70.975 201.777 C 70.281 197.407,69.486 193.392,69.450 194.082 M96.018 194.550 C 96.084 194.745,96.379 195.632,96.672 196.520 C 96.965 197.408,97.247 198.092,97.299 198.041 C 97.414 197.926,96.272 194.527,96.053 194.334 C 95.967 194.257,95.951 194.354,96.018 194.550 M286.611 194.936 C 286.742 195.065,287.648 195.774,288.626 196.510 C 290.926 198.241,293.073 200.318,295.236 202.903 C 296.190 204.043,297.029 204.976,297.100 204.976 C 297.171 204.976,297.071 204.790,296.877 204.562 C 292.570 199.496,291.932 198.847,288.954 196.497 C 287.783 195.573,286.175 194.501,286.611 194.936 M229.614 197.932 C 229.023 198.483,228.010 199.394,227.362 199.957 C 226.715 200.520,226.985 200.345,227.962 199.569 C 229.567 198.295,231.046 196.911,230.788 196.925 C 230.732 196.928,230.204 197.381,229.614 197.932 M97.783 199.525 C 97.867 199.850,98.134 200.543,98.376 201.065 C 98.618 201.587,98.747 201.748,98.663 201.423 C 98.578 201.097,98.311 200.404,98.069 199.883 C 97.828 199.361,97.699 199.200,97.783 199.525 M144.092 200.523 C 144.067 200.778,146.030 204.997,146.128 204.899 C 146.175 204.851,145.740 203.810,145.161 202.584 C 144.582 201.358,144.101 200.431,144.092 200.523 M222.560 202.871 C 221.348 203.508,220.471 204.028,220.611 204.028 C 220.938 204.028,223.905 202.522,224.526 202.041 C 225.233 201.493,224.975 201.602,222.560 202.871 M98.815 202.233 C 98.815 202.531,100.775 206.887,100.868 206.794 C 100.945 206.717,99.113 202.392,98.902 202.152 C 98.854 202.098,98.815 202.134,98.815 202.233 M207.109 203.459 C 207.109 204.700,216.052 205.613,218.602 204.632 C 219.372 204.335,219.416 204.289,218.839 204.386 C 214.777 205.068,210.913 204.893,208.472 203.917 C 207.722 203.618,207.109 203.411,207.109 203.459 M5.534 206.280 C 5.534 207.453,5.574 207.962,5.623 207.412 C 5.673 206.862,5.674 205.903,5.625 205.280 C 5.576 204.657,5.535 205.107,5.534 206.280 M71.721 205.208 C 71.799 205.662,72.005 206.461,72.179 206.985 C 72.481 207.894,72.490 207.900,72.355 207.114 C 72.277 206.661,72.071 205.861,71.897 205.337 C 71.594 204.428,71.586 204.422,71.721 205.208 M297.630 205.924 C 297.909 206.315,298.190 206.635,298.255 206.635 C 298.320 206.635,298.146 206.315,297.867 205.924 C 297.589 205.533,297.308 205.213,297.243 205.213 C 297.177 205.213,297.352 205.533,297.630 205.924 M147.393 207.583 C 147.918 208.626,148.400 209.479,148.465 209.479 C 148.530 209.479,148.155 208.626,147.630 207.583 C 147.106 206.540,146.624 205.687,146.559 205.687 C 146.494 205.687,146.869 206.540,147.393 207.583 M101.896 209.090 C 101.896 209.348,103.310 212.085,103.443 212.085 C 103.508 212.085,103.227 211.419,102.819 210.604 C 102.045 209.060,101.896 208.816,101.896 209.090 M5.752 210.427 C 5.752 211.013,5.798 211.253,5.854 210.960 C 5.911 210.666,5.911 210.187,5.854 209.893 C 5.798 209.600,5.752 209.840,5.752 210.427 M73.022 209.716 C 73.022 209.911,73.166 210.444,73.341 210.900 C 73.517 211.357,73.661 211.570,73.661 211.374 C 73.661 211.179,73.517 210.646,73.341 210.190 C 73.166 209.733,73.022 209.520,73.022 209.716 M301.202 211.730 C 301.202 211.860,301.354 212.233,301.540 212.559 C 301.727 212.885,301.879 213.045,301.879 212.915 C 301.879 212.784,301.727 212.411,301.540 212.085 C 301.354 211.759,301.202 211.600,301.202 211.730 M5.979 213.033 C 5.979 213.489,6.028 213.676,6.088 213.448 C 6.147 213.220,6.147 212.847,6.088 212.618 C 6.028 212.390,5.979 212.577,5.979 213.033 M103.984 213.152 C 104.249 213.673,104.640 214.313,104.854 214.573 C 105.068 214.834,104.952 214.514,104.597 213.863 C 103.801 212.404,103.322 211.848,103.984 213.152 M73.962 212.796 C 73.958 212.992,74.102 213.472,74.281 213.863 C 74.700 214.778,74.706 214.352,74.289 213.270 C 74.113 212.814,73.966 212.601,73.962 212.796 M74.780 215.166 C 74.868 215.492,75.038 215.918,75.158 216.114 C 75.311 216.361,75.330 216.289,75.220 215.877 C 75.132 215.551,74.962 215.124,74.842 214.929 C 74.689 214.682,74.670 214.754,74.780 215.166 M378.469 216.588 C 378.469 216.783,378.561 217.156,378.673 217.417 C 378.801 217.716,378.877 217.760,378.877 217.536 C 378.877 217.340,378.785 216.967,378.673 216.706 C 378.545 216.407,378.469 216.364,378.469 216.588 M6.453 217.299 C 6.453 217.755,6.502 217.941,6.561 217.713 C 6.621 217.485,6.621 217.112,6.561 216.884 C 6.502 216.656,6.453 216.842,6.453 217.299 M153.549 217.528 C 153.825 217.915,154.172 218.307,154.319 218.398 C 154.467 218.490,154.290 218.173,153.925 217.695 C 153.133 216.656,152.834 216.524,153.549 217.528 M379.180 219.194 C 379.180 219.390,379.272 219.763,379.384 220.024 C 379.512 220.322,379.588 220.366,379.588 220.142 C 379.588 219.947,379.496 219.573,379.384 219.313 C 379.256 219.014,379.180 218.970,379.180 219.194 M155.922 220.613 C 156.333 221.132,156.793 221.634,156.945 221.727 C 157.096 221.821,156.809 221.396,156.306 220.783 C 155.804 220.170,155.344 219.668,155.283 219.668 C 155.223 219.668,155.510 220.093,155.922 220.613 M76.557 220.024 C 76.557 220.154,76.709 220.527,76.896 220.853 C 77.082 221.179,77.234 221.339,77.234 221.209 C 77.234 221.078,77.082 220.705,76.896 220.379 C 76.709 220.053,76.557 219.893,76.557 220.024 M108.655 220.987 C 108.875 221.387,109.266 221.973,109.524 222.291 L 109.992 222.867 109.592 222.141 C 109.371 221.741,108.980 221.155,108.723 220.837 L 108.254 220.261 108.655 220.987 M77.387 222.038 C 77.474 222.364,77.644 222.790,77.765 222.986 C 77.918 223.233,77.936 223.161,77.826 222.749 C 77.739 222.423,77.569 221.996,77.448 221.801 C 77.296 221.554,77.277 221.626,77.387 222.038 M379.887 221.682 C 379.876 221.813,380.015 222.453,380.197 223.104 C 380.378 223.756,380.528 224.076,380.529 223.815 C 380.532 223.311,379.922 221.281,379.887 221.682 M157.109 222.112 C 157.109 222.153,157.456 222.499,157.879 222.882 L 158.649 223.578 157.953 222.808 C 157.305 222.090,157.109 221.929,157.109 222.112 M110.159 223.341 C 110.287 223.602,110.565 224.028,110.778 224.289 L 111.164 224.763 110.931 224.289 C 110.803 224.028,110.525 223.602,110.312 223.341 L 109.926 222.867 110.159 223.341 M159.469 224.704 C 160.050 225.323,160.556 225.829,160.594 225.829 C 160.772 225.829,160.584 225.617,159.538 224.635 L 158.412 223.578 159.469 224.704 M78.216 224.052 C 78.216 224.182,78.368 224.556,78.555 224.882 C 78.741 225.207,78.893 225.367,78.893 225.237 C 78.893 225.107,78.741 224.733,78.555 224.408 C 78.368 224.082,78.216 223.922,78.216 224.052 M79.164 226.185 C 79.164 226.315,79.316 226.688,79.502 227.014 C 79.689 227.340,79.841 227.500,79.841 227.370 C 79.841 227.239,79.689 226.866,79.502 226.540 C 79.316 226.214,79.164 226.055,79.164 226.185 M305.984 228.081 C 305.987 228.602,306.035 228.787,306.092 228.492 C 306.148 228.198,306.146 227.771,306.087 227.545 C 306.028 227.318,305.981 227.559,305.984 228.081 M79.878 227.844 C 79.878 227.974,80.082 228.454,80.332 228.910 C 80.581 229.366,80.786 229.633,80.786 229.502 C 80.786 229.372,80.581 228.892,80.332 228.436 C 80.082 227.980,79.878 227.713,79.878 227.844 M163.981 229.265 C 164.423 229.722,164.838 230.095,164.903 230.095 C 164.969 230.095,164.660 229.722,164.218 229.265 C 163.776 228.809,163.361 228.436,163.296 228.436 C 163.230 228.436,163.539 228.809,163.981 229.265 M114.692 229.976 C 115.095 230.563,115.479 231.043,115.544 231.043 C 115.609 231.043,115.332 230.563,114.929 229.976 C 114.525 229.390,114.142 228.910,114.077 228.910 C 114.012 228.910,114.288 229.390,114.692 229.976 M306.229 230.213 C 306.231 230.865,306.277 231.103,306.331 230.743 C 306.386 230.383,306.384 229.850,306.328 229.558 C 306.272 229.267,306.227 229.562,306.229 230.213 M381.795 230.687 C 381.787 230.948,381.869 231.588,381.977 232.109 C 382.142 232.906,382.173 232.944,382.172 232.346 C 382.171 231.516,381.817 229.958,381.795 230.687 M306.494 235.427 C 306.494 237.512,306.531 238.333,306.575 237.252 C 306.619 236.170,306.618 234.464,306.574 233.460 C 306.530 232.456,306.494 233.341,306.494 235.427 M83.531 235.308 C 83.861 235.960,84.185 236.493,84.250 236.493 C 84.315 236.493,84.098 235.960,83.768 235.308 C 83.438 234.656,83.114 234.123,83.049 234.123 C 82.984 234.123,83.201 234.656,83.531 235.308 M170.616 234.446 C 170.616 234.512,170.936 234.793,171.327 235.071 C 171.718 235.350,172.038 235.524,172.038 235.459 C 172.038 235.394,171.718 235.113,171.327 234.834 C 170.936 234.556,170.616 234.381,170.616 234.446 M382.519 235.545 C 382.519 236.001,382.568 236.188,382.628 235.960 C 382.687 235.732,382.687 235.358,382.628 235.130 C 382.568 234.902,382.519 235.089,382.519 235.545 M173.089 236.232 C 173.162 236.349,173.601 236.669,174.066 236.943 C 174.530 237.217,174.851 237.345,174.778 237.228 C 174.705 237.111,174.266 236.790,173.802 236.516 C 173.337 236.242,173.017 236.114,173.089 236.232 M382.761 237.322 C 382.764 237.844,382.812 238.029,382.869 237.734 C 382.926 237.439,382.924 237.013,382.864 236.786 C 382.805 236.560,382.759 236.801,382.761 237.322 M175.592 237.885 C 177.542 239.481,185.299 243.352,190.047 245.098 C 203.350 249.989,216.112 250.795,231.635 247.724 C 235.540 246.951,236.179 246.887,239.198 246.965 C 241.012 247.012,242.239 246.978,241.924 246.890 C 240.587 246.516,235.209 246.686,232.938 247.173 C 221.321 249.668,210.909 249.815,199.577 247.643 C 193.323 246.444,183.432 242.465,177.045 238.578 C 175.094 237.390,174.841 237.270,175.592 237.885 M383.009 239.810 C 383.009 240.527,383.054 240.820,383.108 240.462 C 383.162 240.104,383.162 239.517,383.108 239.159 C 383.054 238.800,383.009 239.094,383.009 239.810 M123.223 240.403 C 123.665 240.859,124.080 241.232,124.145 241.232 C 124.210 241.232,123.902 240.859,123.460 240.403 C 123.018 239.947,122.603 239.573,122.537 239.573 C 122.472 239.573,122.781 239.947,123.223 240.403 M306.221 241.114 C 306.224 241.635,306.272 241.820,306.329 241.526 C 306.385 241.231,306.383 240.804,306.324 240.578 C 306.265 240.351,306.218 240.592,306.221 241.114 M127.370 244.787 C 129.060 246.481,130.497 247.867,130.562 247.867 C 130.627 247.867,129.297 246.481,127.607 244.787 C 125.916 243.092,124.480 241.706,124.414 241.706 C 124.349 241.706,125.679 243.092,127.370 244.787 M383.249 243.246 C 383.250 244.028,383.294 244.320,383.347 243.894 C 383.400 243.468,383.399 242.828,383.345 242.472 C 383.291 242.116,383.247 242.464,383.249 243.246 M383.465 247.771 C 383.436 249.477,383.366 252.356,383.308 254.169 L 383.205 257.464 383.427 254.384 C 383.549 252.690,383.619 249.810,383.583 247.986 L 383.517 244.668 383.465 247.771 M243.839 247.749 C 244.165 247.935,244.538 248.087,244.668 248.087 C 244.799 248.087,244.639 247.935,244.313 247.749 C 243.987 247.563,243.614 247.410,243.483 247.410 C 243.353 247.410,243.513 247.563,243.839 247.749 M132.109 249.289 C 132.618 249.810,133.088 250.237,133.153 250.237 C 133.218 250.237,132.855 249.810,132.346 249.289 C 131.837 248.768,131.367 248.341,131.302 248.341 C 131.237 248.341,131.600 248.768,132.109 249.289 M246.910 249.609 C 247.491 250.215,248.005 250.711,248.053 250.711 C 248.243 250.711,247.002 249.342,246.445 248.937 C 246.120 248.700,246.328 249.002,246.910 249.609 M134.242 251.185 C 134.751 251.706,135.221 252.133,135.286 252.133 C 135.351 252.133,134.988 251.706,134.479 251.185 C 133.970 250.664,133.500 250.237,133.435 250.237 C 133.369 250.237,133.733 250.664,134.242 251.185 M136.256 252.962 C 136.698 253.418,137.113 253.791,137.178 253.791 C 137.243 253.791,136.935 253.418,136.493 252.962 C 136.051 252.506,135.636 252.133,135.571 252.133 C 135.505 252.133,135.814 252.506,136.256 252.962 M95.256 253.547 C 95.531 253.934,95.878 254.326,96.026 254.417 C 96.174 254.509,95.996 254.192,95.631 253.714 C 94.839 252.675,94.540 252.543,95.256 253.547 M249.549 253.318 C 249.540 253.383,249.684 253.916,249.869 254.502 C 250.054 255.089,250.208 255.355,250.210 255.095 C 250.215 254.682,249.590 253.004,249.549 253.318 M137.738 254.189 C 138.171 254.680,140.284 256.262,140.284 256.095 C 140.284 256.043,139.618 255.487,138.803 254.859 C 137.989 254.231,137.509 253.930,137.738 254.189 M97.722 256.705 C 98.224 257.318,98.685 257.820,98.745 257.820 C 98.907 257.820,97.406 255.960,97.084 255.761 C 96.932 255.667,97.220 256.092,97.722 256.705 M250.321 257.701 C 250.320 258.874,250.360 259.384,250.410 258.834 C 250.460 258.284,250.460 257.324,250.411 256.701 C 250.362 256.078,250.322 256.528,250.321 257.701 M141.622 257.029 C 143.417 258.567,150.132 262.886,152.275 263.880 C 152.783 264.115,154.240 264.885,155.511 265.589 C 156.783 266.294,158.703 267.235,159.777 267.682 C 160.851 268.128,161.943 268.594,162.204 268.718 C 163.368 269.270,167.382 270.706,169.482 271.323 C 170.748 271.695,171.878 272.058,171.993 272.129 C 172.663 272.543,182.176 274.725,185.071 275.129 C 186.961 275.392,189.467 275.764,190.640 275.955 C 200.396 277.541,212.223 277.363,223.044 275.465 C 225.617 275.014,227.847 274.645,228.000 274.645 C 228.153 274.645,228.215 274.582,228.138 274.505 C 228.061 274.428,225.724 274.744,222.945 275.206 C 206.366 277.967,187.217 276.582,170.810 271.435 C 162.667 268.881,150.559 263.008,143.365 258.122 C 142.127 257.281,141.343 256.789,141.622 257.029 M383.016 259.123 C 383.017 260.036,383.060 260.380,383.111 259.888 C 383.163 259.396,383.162 258.650,383.109 258.229 C 383.057 257.809,383.015 258.211,383.016 259.123 M99.763 259.242 C 100.309 259.893,100.808 260.427,100.874 260.427 C 100.939 260.427,100.546 259.893,100.000 259.242 C 99.454 258.590,98.955 258.057,98.890 258.057 C 98.824 258.057,99.217 258.590,99.763 259.242 M100.948 260.738 C 100.948 260.778,101.294 261.125,101.718 261.508 L 102.488 262.204 101.792 261.434 C 101.143 260.716,100.948 260.555,100.948 260.738 M382.772 262.322 C 382.772 263.039,382.817 263.332,382.871 262.974 C 382.925 262.616,382.925 262.029,382.871 261.671 C 382.817 261.312,382.772 261.605,382.772 262.322 M104.442 264.573 C 105.631 265.877,108.446 268.756,110.698 270.972 C 114.070 274.288,113.815 273.995,109.251 269.313 C 102.134 262.011,101.853 261.734,104.442 264.573 M246.931 265.718 L 245.403 267.417 246.771 266.114 C 247.892 265.046,248.830 263.917,248.527 264.000 C 248.490 264.010,247.772 264.783,246.931 265.718 M382.519 264.929 C 382.519 265.385,382.568 265.572,382.628 265.344 C 382.687 265.116,382.687 264.742,382.628 264.514 C 382.568 264.286,382.519 264.473,382.519 264.929 M382.282 266.825 C 382.282 267.281,382.331 267.467,382.391 267.239 C 382.450 267.011,382.450 266.638,382.391 266.410 C 382.331 266.182,382.282 266.368,382.282 266.825 M243.162 268.725 C 241.757 269.648,241.608 269.862,242.845 269.180 C 243.407 268.871,243.979 268.481,244.118 268.314 C 244.466 267.894,244.348 267.945,243.162 268.725 M238.863 270.972 C 238.537 271.158,238.377 271.310,238.507 271.310 C 238.637 271.310,239.011 271.158,239.336 270.972 C 239.662 270.785,239.822 270.633,239.692 270.633 C 239.562 270.633,239.188 270.785,238.863 270.972 M235.071 272.393 C 234.615 272.569,234.402 272.716,234.597 272.720 C 234.793 272.724,235.273 272.581,235.664 272.402 C 236.579 271.983,236.153 271.977,235.071 272.393 M231.398 273.460 C 231.099 273.588,231.056 273.663,231.280 273.663 C 231.475 273.663,231.848 273.572,232.109 273.460 C 232.408 273.331,232.452 273.256,232.227 273.256 C 232.032 273.256,231.659 273.348,231.398 273.460 M229.265 274.061 C 228.331 274.384,228.329 274.387,229.147 274.249 C 230.114 274.086,231.102 273.725,230.569 273.730 C 230.373 273.732,229.787 273.881,229.265 274.061 M115.403 275.451 C 117.343 277.673,128.574 286.091,133.839 289.270 C 135.181 290.080,136.568 290.942,136.920 291.185 C 138.402 292.209,149.243 297.756,149.418 297.580 C 149.465 297.534,147.402 296.439,144.834 295.146 C 142.267 293.854,139.686 292.511,139.100 292.163 C 131.242 287.495,129.924 286.645,125.592 283.447 C 122.685 281.301,117.634 277.285,115.877 275.721 C 115.230 275.146,115.044 275.040,115.403 275.451 M287.555 279.917 L 284.953 282.583 287.618 279.980 C 289.085 278.549,290.284 277.349,290.284 277.314 C 290.284 277.144,289.973 277.441,287.555 279.917 M23.003 278.791 C 23.003 278.922,23.155 279.295,23.341 279.621 C 23.527 279.947,23.680 280.107,23.680 279.976 C 23.680 279.846,23.527 279.473,23.341 279.147 C 23.155 278.821,23.003 278.661,23.003 278.791 M24.431 281.872 C 24.431 282.002,24.901 283.015,25.474 284.123 C 26.047 285.231,26.516 286.031,26.516 285.900 C 26.516 285.770,26.047 284.757,25.474 283.649 C 24.901 282.541,24.431 281.742,24.431 281.872 M28.318 289.573 C 28.648 290.225,28.971 290.758,29.036 290.758 C 29.102 290.758,28.885 290.225,28.555 289.573 C 28.224 288.922,27.901 288.389,27.836 288.389 C 27.770 288.389,27.987 288.922,28.318 289.573 M268.187 294.211 C 267.301 294.692,267.355 294.892,268.246 294.431 C 268.637 294.229,268.957 294.013,268.957 293.951 C 268.957 293.799,268.932 293.807,268.187 294.211 M266.528 295.159 C 265.643 295.640,265.696 295.840,266.588 295.379 C 266.979 295.177,267.299 294.961,267.299 294.899 C 267.299 294.747,267.273 294.755,266.528 295.159 M262.204 297.417 C 260.509 298.305,259.205 299.037,259.305 299.042 C 259.500 299.053,264.815 296.389,265.403 295.986 C 266.309 295.364,265.017 295.942,262.204 297.417 M150.740 298.223 C 158.379 302.202,174.167 306.556,188.091 308.523 C 195.876 309.623,214.886 309.763,221.445 308.769 L 222.867 308.553 221.209 308.665 C 204.184 309.809,185.723 308.752,175.355 306.040 C 174.639 305.852,172.879 305.428,171.445 305.096 C 166.123 303.864,156.883 300.712,151.356 298.242 C 149.642 297.476,149.286 297.465,150.740 298.223 M258.057 299.408 C 257.731 299.594,257.571 299.746,257.701 299.746 C 257.832 299.746,258.205 299.594,258.531 299.408 C 258.857 299.221,259.017 299.069,258.886 299.069 C 258.756 299.069,258.383 299.221,258.057 299.408 M34.330 300.118 C 34.458 300.379,34.736 300.806,34.948 301.066 L 35.334 301.540 35.102 301.066 C 34.974 300.806,34.695 300.379,34.483 300.118 L 34.097 299.645 34.330 300.118 M372.787 301.076 C 372.390 301.948,372.466 302.134,372.895 301.342 C 373.096 300.972,373.215 300.625,373.161 300.570 C 373.107 300.516,372.939 300.744,372.787 301.076 M252.725 301.549 C 252.133 301.834,252.113 301.867,252.607 301.746 C 253.278 301.582,254.033 301.197,253.673 301.203 C 253.543 301.205,253.116 301.360,252.725 301.549 M250.518 302.295 C 249.956 302.493,249.538 302.698,249.590 302.749 C 249.698 302.857,251.896 302.136,251.896 301.992 C 251.896 301.844,251.626 301.903,250.518 302.295 M371.725 303.447 C 371.168 304.614,371.247 304.813,371.829 303.710 C 372.093 303.209,372.267 302.757,372.216 302.706 C 372.165 302.655,371.944 302.988,371.725 303.447 M248.223 303.081 C 247.924 303.209,247.880 303.284,248.104 303.284 C 248.300 303.284,248.673 303.193,248.934 303.081 C 249.232 302.952,249.276 302.877,249.052 302.877 C 248.857 302.877,248.483 302.969,248.223 303.081 M246.564 303.555 C 246.265 303.683,246.221 303.758,246.445 303.758 C 246.641 303.758,247.014 303.667,247.275 303.555 C 247.574 303.426,247.617 303.351,247.393 303.351 C 247.198 303.351,246.825 303.442,246.564 303.555 M244.668 304.156 C 243.730 304.481,243.729 304.482,244.550 304.347 C 245.006 304.272,245.539 304.120,245.735 304.008 C 246.256 303.711,245.752 303.781,244.668 304.156 M239.455 305.450 C 238.851 305.710,239.474 305.710,240.284 305.450 C 240.761 305.298,240.784 305.259,240.403 305.254 C 240.142 305.250,239.716 305.338,239.455 305.450 M236.256 306.161 C 235.787 306.311,235.762 306.351,236.137 306.351 C 236.398 306.351,236.878 306.265,237.204 306.161 C 237.673 306.011,237.698 305.971,237.322 305.971 C 237.062 305.971,236.582 306.057,236.256 306.161 M226.303 307.938 C 225.410 308.111,225.062 308.244,225.474 308.255 C 225.865 308.265,226.825 308.129,227.607 307.952 C 229.393 307.549,228.374 307.538,226.303 307.938 M223.403 308.461 C 223.698 308.518,224.125 308.516,224.351 308.457 C 224.578 308.397,224.336 308.351,223.815 308.354 C 223.294 308.356,223.108 308.405,223.403 308.461 M40.758 310.190 C 41.289 310.972,41.777 311.611,41.842 311.611 C 41.907 311.611,41.526 310.972,40.995 310.190 C 40.464 309.408,39.976 308.768,39.911 308.768 C 39.846 308.768,40.227 309.408,40.758 310.190 M368.483 309.953 C 368.217 310.474,368.053 310.900,368.118 310.900 C 368.183 310.900,368.454 310.474,368.720 309.953 C 368.986 309.431,369.151 309.005,369.085 309.005 C 369.020 309.005,368.749 309.431,368.483 309.953 M366.943 312.796 C 366.741 313.187,366.629 313.507,366.694 313.507 C 366.759 313.507,366.978 313.187,367.180 312.796 C 367.382 312.405,367.494 312.085,367.429 312.085 C 367.364 312.085,367.145 312.405,366.943 312.796 M365.877 314.692 C 365.611 315.213,365.447 315.640,365.512 315.640 C 365.577 315.640,365.848 315.213,366.114 314.692 C 366.380 314.171,366.544 313.744,366.479 313.744 C 366.414 313.744,366.143 314.171,365.877 314.692 M44.076 314.929 C 44.354 315.320,44.635 315.640,44.701 315.640 C 44.766 315.640,44.591 315.320,44.313 314.929 C 44.034 314.538,43.753 314.218,43.688 314.218 C 43.623 314.218,43.797 314.538,44.076 314.929 M47.156 318.957 C 47.569 319.479,47.960 319.905,48.026 319.905 C 48.091 319.905,47.806 319.479,47.393 318.957 C 46.980 318.436,46.589 318.009,46.524 318.009 C 46.459 318.009,46.743 318.436,47.156 318.957 M361.661 321.649 C 360.608 323.260,358.620 326.086,357.244 327.929 C 355.868 329.772,354.791 331.280,354.852 331.280 C 355.177 331.280,362.565 320.954,363.530 319.152 C 364.156 317.981,363.385 319.012,361.661 321.649 M49.456 321.912 C 49.690 322.234,49.980 322.500,50.101 322.504 C 50.221 322.508,50.069 322.245,49.763 321.919 C 49.053 321.163,48.908 321.160,49.456 321.912 M50.945 323.693 C 51.357 324.213,51.817 324.714,51.968 324.808 C 52.120 324.901,51.832 324.476,51.330 323.863 C 50.828 323.250,50.367 322.749,50.307 322.749 C 50.247 322.749,50.534 323.174,50.945 323.693 M53.985 327.429 C 55.017 328.700,56.115 329.950,56.426 330.207 C 56.736 330.465,56.608 330.251,56.141 329.733 C 55.673 329.215,54.627 327.965,53.815 326.955 C 53.003 325.945,52.288 325.118,52.224 325.118 C 52.161 325.118,52.954 326.158,53.985 327.429 M57.810 331.813 C 58.792 332.859,59.005 333.047,59.005 332.869 C 59.005 332.831,58.498 332.325,57.879 331.744 L 56.754 330.687 57.810 331.813 M353.176 333.235 C 352.418 334.180,351.963 334.819,352.167 334.656 C 352.601 334.309,354.821 331.517,354.663 331.517 C 354.604 331.517,353.935 332.290,353.176 333.235 M64.810 339.100 C 67.154 341.445,69.124 343.365,69.189 343.365 C 69.255 343.365,67.391 341.445,65.047 339.100 C 62.704 336.754,60.734 334.834,60.668 334.834 C 60.603 334.834,62.467 336.754,64.810 339.100 M350.818 336.078 L 349.882 337.085 350.889 336.149 C 351.825 335.277,352.005 335.071,351.825 335.071 C 351.787 335.071,351.333 335.524,350.818 336.078 M348.334 338.803 L 346.801 340.403 348.400 338.869 C 349.886 337.445,350.108 337.204,349.934 337.204 C 349.898 337.204,349.178 337.924,348.334 338.803 M342.178 345.201 L 338.033 349.408 342.239 345.263 C 344.553 342.984,346.445 341.091,346.445 341.057 C 346.445 340.888,346.028 341.294,342.178 345.201 M73.237 347.168 C 75.352 349.228,78.436 351.847,78.436 351.583 C 78.436 351.524,77.694 350.876,76.787 350.143 C 75.880 349.410,74.187 347.932,73.025 346.858 C 70.925 344.916,70.926 344.918,73.237 347.168 M335.900 351.136 C 335.118 351.885,333.786 353.125,332.938 353.890 C 332.091 354.655,331.825 354.955,332.346 354.556 C 333.407 353.746,337.625 349.790,337.441 349.779 C 337.376 349.775,336.682 350.386,335.900 351.136 M79.858 352.706 C 79.858 352.813,85.401 357.317,86.256 357.905 C 86.572 358.122,86.572 358.109,86.256 357.783 C 85.699 357.208,79.858 352.574,79.858 352.706 M329.059 356.987 C 325.822 359.696,325.907 359.792,329.197 357.143 C 330.784 355.865,331.493 355.196,331.234 355.220 C 331.194 355.224,330.215 356.019,329.059 356.987 M324.882 360.219 C 322.279 362.199,322.084 362.394,323.966 361.138 C 325.458 360.142,326.911 358.940,326.518 359.026 C 326.465 359.037,325.729 359.574,324.882 360.219 M90.282 360.748 C 90.693 361.281,93.839 363.449,93.839 363.199 C 93.839 363.145,93.226 362.699,92.476 362.207 C 91.727 361.716,90.850 361.088,90.528 360.811 C 90.079 360.424,90.022 360.410,90.282 360.748 M319.905 363.766 C 318.797 364.550,316.611 366.052,315.047 367.105 C 312.483 368.831,311.103 369.854,312.085 369.301 C 314.024 368.209,322.399 362.356,322.038 362.345 C 321.973 362.343,321.013 362.983,319.905 363.766 M97.378 365.595 C 97.695 365.852,98.281 366.243,98.681 366.464 L 99.408 366.864 98.831 366.396 C 98.514 366.138,97.927 365.747,97.528 365.527 L 96.801 365.126 97.378 365.595 M100.711 367.608 C 100.711 367.739,105.114 370.546,106.161 371.082 C 107.295 371.663,106.265 370.925,104.028 369.556 C 102.790 368.798,101.537 368.021,101.244 367.829 C 100.951 367.638,100.711 367.538,100.711 367.608 M310.486 370.039 C 309.932 370.371,309.479 370.699,309.479 370.767 C 309.479 370.895,311.077 369.987,311.481 369.630 C 311.888 369.270,311.509 369.426,310.486 370.039 M307.108 372.028 C 304.810 373.369,304.111 373.831,304.976 373.436 C 305.785 373.068,309.242 371.043,309.242 370.938 C 309.242 370.789,309.159 370.832,307.108 372.028 M106.991 371.511 C 107.121 371.646,107.974 372.157,108.886 372.646 C 109.799 373.135,110.438 373.428,110.308 373.297 C 109.985 372.973,106.693 371.200,106.991 371.511 M110.664 373.566 C 110.664 373.631,110.983 373.850,111.374 374.052 C 111.765 374.254,112.085 374.366,112.085 374.301 C 112.085 374.236,111.765 374.017,111.374 373.815 C 110.983 373.613,110.664 373.501,110.664 373.566 M301.243 375.287 C 299.646 376.149,298.375 376.890,298.419 376.934 C 298.511 377.026,303.797 374.230,304.135 373.910 C 304.534 373.532,304.199 373.692,301.243 375.287 M115.166 375.946 C 115.166 376.107,117.091 377.064,117.198 376.957 C 117.248 376.907,116.811 376.635,116.227 376.351 C 115.643 376.068,115.166 375.885,115.166 375.946 M297.209 377.408 C 296.782 377.618,296.471 377.830,296.519 377.877 C 296.620 377.979,298.104 377.265,298.104 377.115 C 298.104 376.972,298.073 376.982,297.209 377.408 M292.251 379.698 C 290.530 380.493,289.157 381.179,289.200 381.223 C 289.290 381.312,293.482 379.474,294.905 378.721 C 296.723 377.760,295.356 378.263,292.251 379.698 M121.327 379.028 C 121.653 379.215,122.026 379.367,122.156 379.367 C 122.287 379.367,122.127 379.215,121.801 379.028 C 121.475 378.842,121.102 378.690,120.972 378.690 C 120.841 378.690,121.001 378.842,121.327 379.028 M124.882 380.687 C 125.207 380.873,125.581 381.026,125.711 381.026 C 125.841 381.026,125.681 380.873,125.355 380.687 C 125.030 380.501,124.656 380.349,124.526 380.349 C 124.396 380.349,124.556 380.501,124.882 380.687 M126.540 381.398 C 126.866 381.584,127.239 381.737,127.370 381.737 C 127.500 381.737,127.340 381.584,127.014 381.398 C 126.688 381.212,126.315 381.059,126.185 381.059 C 126.055 381.059,126.214 381.212,126.540 381.398 M287.441 381.872 C 286.854 382.186,286.441 382.448,286.522 382.454 C 286.751 382.470,288.863 381.508,288.863 381.387 C 288.863 381.181,288.500 381.305,287.441 381.872 M281.583 384.193 C 279.208 385.118,277.303 385.913,277.350 385.960 C 277.446 386.056,285.331 383.087,285.969 382.715 C 286.851 382.201,285.717 382.583,281.583 384.193 M134.005 384.580 C 134.526 384.831,135.113 385.040,135.308 385.044 C 135.714 385.054,134.502 384.494,133.634 384.272 C 133.317 384.191,133.483 384.329,134.005 384.580 M275.474 386.513 C 274.822 386.765,274.597 386.910,274.974 386.837 C 275.719 386.692,277.281 386.058,276.896 386.057 C 276.765 386.056,276.126 386.261,275.474 386.513 M142.517 387.575 C 143.420 387.890,144.199 388.108,144.249 388.058 C 144.358 387.948,141.482 386.959,141.127 386.984 C 140.989 386.994,141.615 387.260,142.517 387.575 M272.393 387.568 C 272.002 387.747,271.842 387.894,272.038 387.896 C 272.233 387.897,272.660 387.746,272.986 387.559 C 273.735 387.131,273.335 387.137,272.393 387.568 M269.787 388.389 C 269.135 388.629,268.762 388.826,268.957 388.826 C 269.153 388.826,269.846 388.629,270.498 388.389 C 271.149 388.148,271.523 387.951,271.327 387.951 C 271.132 387.951,270.438 388.148,269.787 388.389 M266.943 389.221 C 266.422 389.398,265.462 389.705,264.810 389.904 C 264.021 390.145,263.902 390.220,264.455 390.129 C 265.489 389.958,268.731 388.911,268.246 388.905 C 268.051 388.902,267.464 389.045,266.943 389.221 M148.460 389.464 C 148.851 389.643,149.331 389.786,149.526 389.782 C 149.722 389.778,149.508 389.631,149.052 389.455 C 147.970 389.038,147.545 389.044,148.460 389.464 M259.005 391.351 C 257.376 391.782,256.182 392.145,256.353 392.158 C 256.709 392.183,262.386 390.774,262.538 390.622 C 262.749 390.411,261.867 390.592,259.005 391.351 M253.436 392.654 C 252.791 392.818,252.780 392.836,253.318 392.846 C 253.643 392.853,254.123 392.766,254.384 392.654 C 254.968 392.403,254.423 392.403,253.436 392.654 M237.737 395.661 C 237.965 395.721,238.338 395.721,238.566 395.661 C 238.794 395.601,238.608 395.553,238.152 395.553 C 237.695 395.553,237.509 395.601,237.737 395.661 M234.182 396.135 C 234.411 396.195,234.784 396.195,235.012 396.135 C 235.240 396.075,235.053 396.027,234.597 396.027 C 234.141 396.027,233.954 396.075,234.182 396.135 M182.287 396.372 C 182.515 396.431,182.888 396.431,183.116 396.372 C 183.344 396.312,183.158 396.264,182.701 396.264 C 182.245 396.264,182.059 396.312,182.287 396.372 M232.050 396.372 C 232.278 396.431,232.651 396.431,232.879 396.372 C 233.107 396.312,232.921 396.264,232.464 396.264 C 232.008 396.264,231.822 396.312,232.050 396.372 M184.778 396.613 C 185.072 396.670,185.499 396.668,185.726 396.608 C 185.952 396.549,185.711 396.503,185.190 396.505 C 184.668 396.508,184.483 396.556,184.778 396.613 M230.154 396.609 C 230.382 396.668,230.755 396.668,230.983 396.609 C 231.211 396.549,231.025 396.500,230.569 396.500 C 230.113 396.500,229.926 396.549,230.154 396.609 M187.263 396.846 C 187.491 396.905,187.864 396.905,188.092 396.846 C 188.320 396.786,188.134 396.737,187.678 396.737 C 187.222 396.737,187.035 396.786,187.263 396.846 M227.784 396.846 C 228.012 396.905,228.386 396.905,228.614 396.846 C 228.842 396.786,228.655 396.737,228.199 396.737 C 227.743 396.737,227.556 396.786,227.784 396.846 M189.396 397.083 C 189.624 397.142,189.997 397.142,190.225 397.083 C 190.453 397.023,190.267 396.974,189.810 396.974 C 189.354 396.974,189.168 397.023,189.396 397.083 M191.765 397.320 C 191.993 397.379,192.367 397.379,192.595 397.320 C 192.823 397.260,192.636 397.211,192.180 397.211 C 191.724 397.211,191.537 397.260,191.765 397.320 M223.756 397.320 C 223.984 397.379,224.357 397.379,224.585 397.320 C 224.813 397.260,224.627 397.211,224.171 397.211 C 223.714 397.211,223.528 397.260,223.756 397.320 M194.495 397.565 C 194.921 397.618,195.560 397.617,195.917 397.563 C 196.273 397.509,195.924 397.465,195.142 397.467 C 194.360 397.468,194.069 397.512,194.495 397.565 M221.508 397.561 C 221.802 397.618,222.229 397.615,222.455 397.556 C 222.682 397.497,222.441 397.450,221.919 397.453 C 221.398 397.456,221.213 397.504,221.508 397.561 M198.762 397.804 C 199.320 397.854,200.173 397.854,200.658 397.803 C 201.143 397.752,200.687 397.711,199.645 397.712 C 198.602 397.712,198.205 397.754,198.762 397.804 M218.069 397.800 C 218.427 397.854,219.014 397.854,219.372 397.800 C 219.730 397.746,219.437 397.701,218.720 397.701 C 218.004 397.701,217.710 397.746,218.069 397.800 M206.576 398.044 C 208.172 398.085,210.785 398.085,212.382 398.044 C 213.978 398.003,212.672 397.970,209.479 397.970 C 206.286 397.970,204.979 398.003,206.576 398.044 " stroke="none" fill="#9d9385" fill-rule="evenodd"></path></g></svg>